<svg version="1.1" xmlns="http://www.w3.org/2000/svg" xmlns:xlink="http://www.w3.org/1999/xlink">
    <symbol id="logo" viewBox="0 0 214 53">
        <path d="M3.32384 51.4167C2.34387 50.7959 1.63281 49.4377 1.19066 47.3422C0.711145 44.9362 0.412955 42.4976 0.29861 40.0469C0.14347 37.2813 0.0917566 34.3451 0.14347 31.2381C0.195183 28.1311 0.221039 25.2337 0.221039 22.5458C0.221039 18.5618 0.156398 15.134 0.0271146 12.2624C-0.102169 9.39083 0.208111 7.03665 0.957954 5.19988C1.70521 3.36569 3.15318 2.03338 5.30187 1.20295C7.45056 0.372522 10.799 0.0103411 15.3472 0.116408C17.9583 0.130715 20.5411 0.6581 22.949 1.66861C25.086 2.557 27.0243 3.86307 28.6504 5.51032C30.1583 7.06015 31.3214 8.91158 32.0635 10.943C32.8112 12.9764 33.1154 15.1463 32.9556 17.3071C32.7667 19.6136 32.0785 21.8513 30.9387 23.8651C29.5984 26.2125 27.8055 28.2702 25.664 29.9187C26.0167 30.7882 26.4315 31.6311 26.9051 32.4411C27.4714 33.45 28.0919 34.5495 28.7668 35.7395C29.4416 36.9295 30.1087 38.1764 30.7681 39.4803C31.4378 40.7738 32.0196 41.9897 32.5134 43.128C32.9605 44.1199 33.286 45.1623 33.483 46.2324C33.6382 47.1637 33.5347 47.8881 33.1728 48.4055C31.4145 50.7829 29.7726 52.0506 28.2471 52.2084C26.7215 52.3662 25.2089 51.7065 23.7092 50.2293C22.2095 48.7547 20.684 46.6023 19.1326 43.7721C17.5812 40.942 15.9264 37.747 14.1681 34.1873C14.0634 34.1873 13.9858 34.6258 13.9354 35.5067C13.885 36.3875 13.8074 37.3421 13.7027 38.3782C13.5993 39.62 13.5217 40.9911 13.47 42.4916C13.5271 44.4351 13.2111 46.3715 12.5391 48.1959C12.0614 49.521 11.2458 50.6982 10.1733 51.6108C9.25106 52.3492 8.09592 52.7344 6.91533 52.6973C5.6177 52.6364 4.36751 52.1906 3.32384 51.4167ZM13.1752 20.3727C13.1752 21.097 13.5889 21.4592 14.4163 21.4592C15.3425 21.433 16.2481 21.1799 17.0537 20.7219C18.0178 20.204 18.8736 19.5058 19.5747 18.6652C19.9285 18.2813 20.1976 17.8273 20.3646 17.3326C20.5317 16.8379 20.5929 16.3136 20.5444 15.7937C20.4946 14.9088 20.1684 14.0619 19.6116 13.3726C19.0549 12.6833 18.2958 12.1864 17.4416 11.952C16.6614 11.7186 15.8512 11.6009 15.0369 11.6027H12.8649L13.1752 20.3727Z" fill="#EA8F00"/>
        <path d="M62.6649 50.6407C61.3602 51.3697 59.9454 51.8808 58.4761 52.1541C57.0203 52.4359 55.534 52.5272 54.0546 52.4257C51.7145 52.1542 49.3952 51.7264 47.1121 51.1451C44.8319 50.59 42.7341 49.4536 41.0229 47.8467C38.8732 45.407 37.3902 42.4529 36.7178 39.2708C36.016 36.1995 36.0692 33.0037 36.8729 29.9576C37.6759 26.9757 39.2708 24.2671 41.4883 22.1189C43.7611 19.8682 46.7346 18.4842 50.4089 17.9668C52.6282 17.605 54.8881 17.5658 57.1187 17.8504C59.3445 18.1038 61.4544 18.9778 63.2079 20.3727C64.1849 21.2979 65.0096 22.3718 65.6514 23.5547C66.2908 24.7301 66.7361 26.0012 66.97 27.3188C67.2016 28.6293 67.1884 29.9713 66.9313 31.2769C66.6589 32.6226 66.0744 33.8853 65.2247 34.9634C64.0309 35.9204 62.6602 36.6325 61.1911 37.0589C59.7218 37.4776 58.2148 37.7506 56.692 37.8738C55.1406 38.0006 53.5763 38.0523 51.999 38.029C50.4218 38.0057 48.8833 38.0187 47.3836 38.0678C47.5452 39.0102 48.058 39.8562 48.8187 40.4349C49.5978 41.0753 50.5649 41.4432 51.5724 41.4827C52.5781 41.5875 53.592 41.5875 54.5976 41.4827C55.6319 41.3766 56.6662 41.2861 57.7004 41.211C58.7203 41.1334 59.7446 41.1334 60.7645 41.211C61.7873 41.2937 62.78 41.5983 63.6733 42.1036C64.2859 42.6613 64.7407 43.3706 64.992 44.1602C65.2463 44.9351 65.3387 45.754 65.2635 46.5661C65.1819 47.3783 64.9167 48.1613 64.4878 48.8556C64.036 49.5915 63.4099 50.2046 62.6649 50.6407ZM48.935 30.7725C51.3113 31.1346 53.0178 31.1476 54.0546 30.8113C55.0863 30.4737 55.6836 30.008 55.8388 29.4143C55.9078 29.0978 55.8901 28.7685 55.7878 28.4612C55.6854 28.1538 55.502 27.8798 55.257 27.6681C54.733 27.1077 54.0367 26.7389 53.2789 26.6203C52.8458 26.5699 52.4069 26.6056 51.9875 26.7255C51.5682 26.8454 51.1767 27.047 50.8355 27.3188C49.9822 27.9242 49.3487 29.0754 48.935 30.7725Z" fill="#EA8F00"/>
        <path d="M82.0574 21.9249C83.7095 20.598 85.7568 19.8606 87.8751 19.8294C90.0269 19.7751 92.1626 20.2131 94.1195 21.11C96.1408 22.0376 97.9496 23.3717 99.433 25.0293C100.922 26.619 101.965 28.5731 102.458 30.6948C103.324 33.6283 103.73 36.6785 103.661 39.7364C103.652 42.926 103.353 46.1082 102.769 49.2437C102.432 49.896 101.955 50.4658 101.372 50.9123C100.752 51.4047 100.058 51.7975 99.3167 52.0764C98.5659 52.3593 97.7851 52.5546 96.9896 52.6585C96.2564 52.7635 95.512 52.7635 94.7788 52.6585C94.3603 52.617 93.9559 52.4843 93.5941 52.2698C93.2323 52.0552 92.9218 51.7641 92.6844 51.4167C92.171 50.709 91.8502 49.88 91.7536 49.0108C91.6507 47.8238 91.6118 46.632 91.6372 45.4408C91.6605 44.3038 91.676 43.1629 91.676 42.0259C91.676 40.8889 91.6372 39.748 91.5597 38.6111C91.4754 37.4363 91.3069 36.2692 91.0555 35.1186C90.7973 34.4491 90.3184 33.8878 89.698 33.5276C89.0721 33.1472 88.3704 32.9087 87.6424 32.8291C86.9326 32.7489 86.2139 32.8421 85.548 33.1007C85.2214 33.2231 84.9227 33.4098 84.6695 33.6497C84.4164 33.8897 84.2139 34.1781 84.0742 34.4977C83.5206 35.6316 83.1664 36.8524 83.027 38.1066C82.8954 39.3308 82.8436 40.5622 82.8718 41.7931C82.8951 43.0348 82.921 44.2766 82.9494 45.5184C82.9711 46.7915 82.8803 48.0641 82.6779 49.3213C82.4931 49.961 82.1672 50.5511 81.7242 51.0481C81.2811 51.5451 80.7323 51.9363 80.1181 52.1928C78.9207 52.7044 77.6064 52.8788 76.3172 52.6973C75.0239 52.5172 73.811 51.9644 72.8265 51.1063C72.3117 50.6657 71.8991 50.118 71.6178 49.5013C71.3364 48.8847 71.193 48.2141 71.1976 47.5362C71.1976 43.7049 71.1588 40.0313 71.0812 36.5156C71.0036 32.9998 70.939 29.5333 70.8873 26.1158C70.833 22.701 70.833 19.2732 70.8873 15.8325C70.9416 12.3917 71.045 8.83461 71.1976 5.16106C71.3961 4.19112 71.9153 3.3163 72.6714 2.67754C73.4262 2.01569 74.3318 1.54932 75.3088 1.31936C76.2791 1.08569 77.2925 1.09903 78.2564 1.35817C79.2221 1.60723 80.0718 2.18312 80.6611 2.98798C81.1343 4.66172 81.446 6.37699 81.5919 8.11025C81.6928 9.61331 81.7316 11.062 81.7083 12.4564C81.685 13.8508 81.6592 15.2995 81.6307 16.8026C81.6215 18.5193 81.7643 20.2334 82.0574 21.9249Z" fill="#EA8F00"/>
        <path d="M136.822 47.8467C137.132 49.3497 136.848 50.5009 135.968 51.3003C135.089 52.0997 133.874 52.5266 132.323 52.5809C131.15 52.6149 129.985 52.3897 128.91 51.9212C127.89 51.4323 126.906 50.8749 125.962 50.2526C124.738 50.3686 123.521 50.5499 122.316 50.7959C121.021 51.056 119.714 51.2503 118.399 51.3779C117.097 51.5071 115.786 51.5201 114.482 51.4167C113.203 51.3175 111.96 50.9471 110.836 50.3302C109.313 49.4764 108.103 48.1573 107.384 46.5661C106.537 44.8573 106.036 42.9978 105.91 41.0946C105.772 39.2202 106.05 37.3385 106.725 35.5843C107.327 33.908 108.511 32.5036 110.06 31.6261C110.836 31.2122 111.547 30.863 112.193 30.5784C112.866 30.2853 113.568 30.0642 114.288 29.9187C115.038 29.7635 115.878 29.6342 116.809 29.5307C117.74 29.4272 118.877 29.3496 120.222 29.2978C121.463 28.0043 121.295 27.086 119.718 26.5427C118.14 25.9994 115.283 26.2452 111.146 27.28C109.644 27.0213 108.635 26.3487 108.121 25.2621C107.602 24.175 107.465 22.9443 107.733 21.7697C108.024 20.4619 108.637 19.2479 109.517 18.2384C110.384 17.1648 111.586 16.4133 112.93 16.1041C117.375 15.328 121.305 15.328 124.721 16.1041C128.137 16.8802 130.839 18.3031 132.827 20.3727C134.815 22.4423 136.005 25.081 136.395 28.2889C136.786 31.4968 136.178 35.1186 134.572 39.1543C134.136 39.8753 133.971 40.7284 134.107 41.5603C134.266 42.2973 134.541 43.0045 134.921 43.6557L136.085 45.6736C136.471 46.3424 136.721 47.0809 136.822 47.8467ZM119.058 42.2587C119.364 42.3605 119.691 42.3854 120.008 42.3313C120.326 42.2771 120.626 42.1456 120.881 41.9483C121.449 41.5654 121.893 41.0263 122.161 40.3961C122.288 40.1098 122.357 39.8012 122.363 39.4881C122.37 39.175 122.314 38.8637 122.2 38.5723C121.967 37.9798 121.359 37.6047 120.377 37.4469C119.291 37.2412 118.438 37.3421 117.778 37.7574C117.492 37.9175 117.241 38.1343 117.041 38.3945C116.841 38.6546 116.696 38.9528 116.615 39.2708C116.556 39.5877 116.563 39.9135 116.637 40.2275C116.71 40.5414 116.848 40.8367 117.041 41.0946C117.276 41.4202 117.577 41.6924 117.925 41.893C118.273 42.0937 118.659 42.2184 119.058 42.2587Z" fill="#EA8F00"/>
        <path d="M156.521 49.0885C156.415 49.6074 156.174 50.0892 155.823 50.4855C155.429 50.9264 154.971 51.3057 154.465 51.6108C153.928 51.9451 153.356 52.2185 152.759 52.4257C152.213 52.6176 151.656 52.7731 151.091 52.8914C150.413 53.0463 149.707 53.033 149.035 52.8526C148.281 52.6698 147.561 52.3686 146.902 51.96C146.261 51.574 145.696 51.0743 145.234 50.4855C144.819 49.9819 144.587 49.3528 144.575 48.7004C144.526 45.5469 144.474 42.4166 144.42 39.3096C144.365 36.2026 144.288 33.0723 144.187 29.9188C142.274 29.867 140.981 29.3367 140.309 28.3277C139.651 27.3769 139.374 26.2135 139.533 25.0681C139.696 23.8877 140.225 22.7883 141.045 21.9249C141.406 21.4922 141.866 21.1533 142.386 20.9371C142.906 20.7209 143.471 20.6337 144.032 20.6831C144.032 19.5462 144.071 18.2501 144.148 16.8026C144.226 15.3552 144.369 13.8651 144.575 12.34C144.773 10.8535 145.097 9.38654 145.545 7.95507C145.94 6.64424 146.557 5.41062 147.367 4.30739C148.342 3.11382 149.575 2.15828 150.974 1.51343C152.496 0.718361 154.154 0.218057 155.861 0.0388321C157.36 -0.14487 158.877 0.183301 160.166 0.970154C161.408 1.74626 162.002 3.16911 161.951 5.23872C161.822 5.89389 161.586 6.52327 161.252 7.10136C160.931 7.63166 160.554 8.12601 160.128 8.57595C159.691 9.04161 159.238 9.50727 158.77 9.97294C158.302 10.4386 157.837 10.9301 157.374 11.4475C156.693 12.5525 156.282 13.8019 156.172 15.0952C156.094 16.2865 156.082 17.6292 156.133 19.1309C157.635 18.8205 158.863 18.8593 159.817 19.2474C160.702 19.5773 161.452 20.1914 161.951 20.9936C162.425 21.8033 162.654 22.7335 162.61 23.6711C162.585 24.6767 162.319 25.6616 161.834 26.5427C161.271 27.5627 160.445 28.4136 159.443 29.0071C158.44 29.6007 157.298 29.9154 156.133 29.9188C156.133 33.0232 156.262 36.2181 156.521 39.5036C156.781 42.6933 156.781 45.8988 156.521 49.0885Z" fill="#EA8F00"/>
        <path d="M171.492 17.4701C173.092 17.2269 174.333 17.4985 175.215 18.285C176.171 19.2034 176.832 20.3852 177.115 21.6804C177.532 23.3967 177.74 25.1569 177.736 26.923C177.762 28.9434 177.723 31.0738 177.62 33.3142C177.516 35.5545 177.426 37.8195 177.348 40.109C177.266 42.24 177.331 44.3741 177.542 46.4963C177.589 47.1235 177.51 47.7537 177.31 48.3501C177.11 48.9464 176.794 49.4969 176.379 49.9693C175.415 51.099 174.054 51.8134 172.578 51.9639C171.694 52.1155 170.786 52.0393 169.94 51.7427C169.169 51.479 168.457 51.0649 167.846 50.5242C167.288 50.0216 166.828 49.4204 166.488 48.7508C166.16 48.1762 166.033 47.5083 166.128 46.8533C165.916 44.9771 165.799 43.0913 165.779 41.2033C165.75 39.2087 165.75 37.1895 165.779 35.1458C165.807 33.102 165.846 31.0829 165.895 29.0883C165.944 27.0937 165.944 25.1858 165.895 23.3646C165.959 22.703 166.102 22.0516 166.322 21.4243C166.552 20.728 166.893 20.073 167.33 19.484C167.789 18.8771 168.37 18.3733 169.037 18.0056C169.795 17.617 170.641 17.4325 171.492 17.4701Z" fill="#EA8F00"/>
        <path d="M182.507 48.7004C181.904 47.4444 181.754 46.0189 182.08 44.6647C182.43 43.3938 183.008 42.1972 183.786 41.1334C184.598 40.0062 185.479 38.9306 186.424 37.9126C187.33 36.9443 188.123 35.8768 188.79 34.7306C188.076 33.7616 187.298 32.8412 186.463 31.9754C185.661 31.1548 184.91 30.2865 184.213 29.3755C183.556 28.5228 183.02 27.5824 182.623 26.5815C182.227 25.4865 182.16 24.2995 182.429 23.1667C182.526 22.2427 182.937 21.3799 183.593 20.7219C184.263 20.0249 185.086 19.4935 185.997 19.1697C186.928 18.8334 187.918 18.6882 188.906 18.7429C189.837 18.7689 190.74 19.0656 191.505 19.5966C192.042 20.0254 192.536 20.5063 192.979 21.0324C193.545 21.6817 194.114 22.3543 194.685 23.0502L196.353 25.1069C196.896 25.7795 197.322 26.3228 197.633 26.7367C198.169 25.6905 198.792 24.691 199.494 23.7487C200.276 22.6817 201.145 21.6822 202.093 20.7607C203.001 19.8671 204.002 19.0735 205.079 18.3936C206.015 17.7772 207.102 17.4283 208.221 17.3847C209.308 17.3678 210.371 17.7086 211.246 18.3548C212.2 19.0249 213.067 20.2407 213.845 22.0025C213.963 23.26 213.721 24.5252 213.147 25.6502C212.568 26.7519 211.88 27.792 211.091 28.7546C210.29 29.7351 209.449 30.7311 208.57 31.7426C207.718 32.708 207.013 33.7931 206.476 34.9634C207.52 36.4796 208.688 37.9073 209.966 39.232C211.233 40.5467 212.375 41.9756 213.379 43.5005C213.89 44.4077 214.094 45.4558 213.961 46.4885C213.834 47.5429 213.462 48.5529 212.875 49.4377C212.278 50.3461 211.465 51.0926 210.509 51.6108C209.543 52.1508 208.424 52.3554 207.329 52.1929C206.305 51.8369 205.348 51.3122 204.498 50.6407C203.644 49.9693 202.814 49.2553 202.015 48.5064C201.216 47.7574 200.425 47.0046 199.65 46.2557C198.903 45.5315 198.099 44.8696 197.245 44.2766C195.484 46.9154 193.752 48.9332 192.048 50.3302C191.344 50.9373 190.561 51.4464 189.721 51.8436C188.948 52.22 188.097 52.4063 187.238 52.3869C186.353 52.3412 185.502 52.0303 184.795 51.4944C183.838 50.741 183.057 49.7874 182.507 48.7004Z" fill="#EA8F00"/>
        <path d="M173.586 13.931C171.308 14.0862 169.537 13.6723 168.272 12.6893C167.008 11.7062 166.284 10.5808 166.101 9.31322C165.917 8.043 166.318 6.84004 167.303 5.70434C168.288 4.56865 169.891 3.89603 172.112 3.68648C173.922 3.53126 175.293 3.90637 176.223 4.81183C177.124 5.65442 177.677 6.80309 177.775 8.03265C177.872 9.30548 177.544 10.5746 176.844 11.6415C176.481 12.2212 176.006 12.7224 175.446 13.1156C174.887 13.5088 174.254 13.786 173.586 13.931Z" fill="#EA8F00"/>
    </symbol>

    <symbol id="mail" viewBox="0 0 24 24">
        <path d="M2 19.5H22V12V4.5H12H2V12V19.5Z"/>
        <path d="M2 4.5L12 12L22 4.5"/>
        <path d="M12 4.5H2V12"/>
        <path d="M22 12V4.5H12"/>
    </symbol>


    <symbol id="user" viewBox="0 0 24 24">
        <path d="M5.5 19.5C7 18.5 9 18 10 17C11 16 8 16 8 11C8 6 12 6 12 6C12 6 16 6 16 11C16 16 13 16 14 17C15 18 17 18.5 18.5 19.5" stroke="#D9F1AD" stroke-width="1.5" stroke-linecap="round"/>
        <path fill-rule="evenodd" clip-rule="evenodd" d="M12 22C17.5228 22 22 17.5228 22 12C22 6.47715 17.5228 2 12 2C6.47715 2 2 6.47715 2 12C2 17.5228 6.47715 22 12 22Z" stroke="#D9F1AD" stroke-width="1.5"/>
    </symbol>

    <symbol id="main-cards1" viewBox="0 0 192 192" fill="none">
        <path fill-rule="evenodd" clip-rule="evenodd" d="M25.918 34.8029C28.7883 31.4439 33.8381 31.0478 37.1971 33.918L85.1971 74.934C86.9758 76.4539 88 78.6763 88 81.016V119.873C88 121.424 87.5493 122.941 86.7027 124.241L50.1311 180.367C47.719 184.069 42.7628 185.115 39.061 182.703C35.3592 180.291 34.3137 175.334 36.7257 171.633L72 117.497V84.7029L26.8029 46.082C23.4439 43.2117 23.0478 38.1619 25.918 34.8029Z" fill="#85BC20"/>
        <path fill-rule="evenodd" clip-rule="evenodd" d="M166.082 34.8029C168.952 38.1619 168.556 43.2117 165.197 46.082L120 84.7029V117.497L155.274 171.633C157.686 175.334 156.641 180.291 152.939 182.703C149.237 185.115 144.281 184.069 141.869 180.367L105.297 124.241C104.451 122.941 104 121.424 104 119.873V81.016C104 78.6763 105.024 76.4539 106.803 74.934L154.803 33.918C158.162 31.0478 163.212 31.4439 166.082 34.8029Z" fill="#85BC20"/>
        <path fill-rule="evenodd" clip-rule="evenodd" d="M96 24C91.5817 24 88 27.5817 88 32C88 36.4183 91.5817 40 96 40C100.418 40 104 36.4183 104 32C104 27.5817 100.418 24 96 24ZM72 32C72 18.7452 82.7452 8 96 8C109.255 8 120 18.7452 120 32C120 45.2548 109.255 56 96 56C82.7452 56 72 45.2548 72 32Z" fill="#85BC20"/>
    </symbol>
    <symbol id="main-cards2" viewBox="0 0 192 192" fill="none">
        <path d="M168 176H24C21.8783 176 19.8434 175.157 18.3431 173.657C16.8429 172.157 16 170.122 16 168V24C16 21.8783 16.8429 19.8434 18.3431 18.3431C19.8434 16.8429 21.8783 16 24 16C26.1217 16 28.1566 16.8429 29.6569 18.3431C31.1571 19.8434 32 21.8783 32 24V160H168C170.122 160 172.157 160.843 173.657 162.343C175.157 163.843 176 165.878 176 168C176 170.122 175.157 172.157 173.657 173.657C172.157 175.157 170.122 176 168 176Z" fill="#EA8F00"/>
        <path d="M56 144C53.8783 144 51.8434 143.157 50.3431 141.657C48.8429 140.157 48 138.122 48 136V120C48 117.878 48.8429 115.843 50.3431 114.343C51.8434 112.843 53.8783 112 56 112C58.1217 112 60.1566 112.843 61.6569 114.343C63.1571 115.843 64 117.878 64 120V136C64 138.122 63.1571 140.157 61.6569 141.657C60.1566 143.157 58.1217 144 56 144Z" fill="#EA8F00"/>
        <path d="M88 144C85.8783 144 83.8434 143.157 82.3431 141.657C80.8429 140.157 80 138.122 80 136V88C80 85.8783 80.8429 83.8434 82.3431 82.3431C83.8434 80.8429 85.8783 80 88 80C90.1217 80 92.1566 80.8429 93.6569 82.3431C95.1571 83.8434 96 85.8783 96 88V136C96 138.122 95.1571 140.157 93.6569 141.657C92.1566 143.157 90.1217 144 88 144Z" fill="#EA8F00"/>
        <path d="M120 144C117.878 144 115.843 143.157 114.343 141.657C112.843 140.157 112 138.122 112 136V24C112 21.8783 112.843 19.8434 114.343 18.3431C115.843 16.8429 117.878 16 120 16C122.122 16 124.157 16.8429 125.657 18.3431C127.157 19.8434 128 21.8783 128 24V136C128 138.122 127.157 140.157 125.657 141.657C124.157 143.157 122.122 144 120 144Z" fill="#EA8F00"/>
        <path d="M152 144C149.878 144 147.843 143.157 146.343 141.657C144.843 140.157 144 138.122 144 136V56C144 53.8783 144.843 51.8434 146.343 50.3431C147.843 48.8429 149.878 48 152 48C154.122 48 156.157 48.8429 157.657 50.3431C159.157 51.8434 160 53.8783 160 56V136C160 138.122 159.157 140.157 157.657 141.657C156.157 143.157 154.122 144 152 144Z" fill="#EA8F00"/>
    </symbol>
    <symbol id="main-cards3" viewBox="0 0 192 192" fill="none">
        <path fill-rule="evenodd" clip-rule="evenodd" d="M24 16C24 11.5817 27.5817 8 32 8H136C140.418 8 144 11.5817 144 16V40C144 44.4183 140.418 48 136 48C131.582 48 128 44.4183 128 40V24H40V139.056L52.4223 132.845C56.3741 130.869 61.1795 132.47 63.1554 136.422C65.1313 140.374 63.5295 145.18 59.5777 147.155L35.5777 159.155C33.0978 160.395 30.1527 160.263 27.7942 158.805C25.4356 157.348 24 154.773 24 152V16Z" fill="#007AC3"/>
        <path fill-rule="evenodd" clip-rule="evenodd" d="M48 40C48 35.5817 51.5817 32 56 32H160C164.418 32 168 35.5817 168 40V176C168 178.753 166.585 181.312 164.254 182.775C161.922 184.239 159.003 184.401 156.523 183.205L108 159.792L59.4766 183.205C56.9975 184.401 54.0776 184.239 51.7463 182.775C49.4151 181.312 48 178.753 48 176V40ZM64 48V163.257L104.523 143.704C106.72 142.644 109.28 142.644 111.477 143.704L152 163.257V48H64Z" fill="#007AC3"/>
        <path fill-rule="evenodd" clip-rule="evenodd" d="M107.799 59.7988C112.217 59.7988 115.799 63.3805 115.799 67.7988V115.799C115.799 120.217 112.217 123.799 107.799 123.799C103.381 123.799 99.7988 120.217 99.7988 115.799V67.7988C99.7988 63.3805 103.381 59.7988 107.799 59.7988Z" fill="#007AC3"/>
        <path fill-rule="evenodd" clip-rule="evenodd" d="M75.7988 91.7988C75.7988 87.3805 79.3805 83.7988 83.7988 83.7988H131.799C136.217 83.7988 139.799 87.3805 139.799 91.7988C139.799 96.2171 136.217 99.7988 131.799 99.7988H83.7988C79.3805 99.7988 75.7988 96.2171 75.7988 91.7988Z" fill="#007AC3"/>
    </symbol>
    <symbol id="arrow-r" viewBox="0 0 24 24">
        <path d="M22 13C21.9984 12.8693 21.9712 12.7402 21.92 12.62C21.9061 12.5834 21.8858 12.5495 21.86 12.52C21.8159 12.4397 21.7657 12.3628 21.71 12.29L16.71 7.29C16.6168 7.19676 16.5061 7.1228 16.3842 7.07234C16.2624 7.02188 16.1319 6.99591 16 6.99591C15.7337 6.99591 15.4783 7.1017 15.29 7.29C15.1968 7.38324 15.1228 7.49393 15.0723 7.61575C15.0219 7.73758 14.9959 7.86814 14.9959 8C14.9959 8.2663 15.1017 8.5217 15.29 8.71L18.59 12H3C2.73478 12 2.48043 12.1054 2.29289 12.2929C2.10536 12.4804 2 12.7348 2 13C2 13.2652 2.10536 13.5196 2.29289 13.7071C2.48043 13.8946 2.73478 14 3 14H18.58L15.29 17.29C15.1963 17.383 15.1219 17.4936 15.0711 17.6154C15.0203 17.7373 14.9942 17.868 14.9942 18C14.9942 18.132 15.0203 18.2627 15.0711 18.3846C15.1219 18.5064 15.1963 18.617 15.29 18.71C15.383 18.8037 15.4936 18.8781 15.6154 18.9289C15.7373 18.9797 15.868 19.0058 16 19.0058C16.132 19.0058 16.2627 18.9797 16.3846 18.9289C16.5064 18.8781 16.617 18.8037 16.71 18.71L21.71 13.71C21.8094 13.6138 21.8877 13.498 21.94 13.37C21.9751 13.284 21.9954 13.1928 22 13.1V13Z"/>
    </symbol>
    <symbol id="siluet" width="19" height="20" viewBox="0 0 19 20" fill="none" xmlns="http://www.w3.org/2000/svg">
        <path fill-rule="evenodd" clip-rule="evenodd" d="M1.77221 17.7022C1.97863 17.8042 2.16841 17.9355 2.33534 18.0918C2.56224 18.3336 2.75979 18.6001 2.92407 18.886C3.03324 19.0811 3.16185 19.2651 3.30802 19.4355C3.43632 19.5807 3.59288 19.6996 3.76864 19.7854C3.94439 19.8711 4.13585 19.922 4.3319 19.935C4.66188 19.9679 4.99336 19.9846 5.32506 19.9849C5.95369 19.983 6.58023 19.9143 7.19364 19.7801C7.74747 19.6469 8.28225 19.4473 8.78577 19.1857C8.88304 19.1308 9.69702 18.7212 9.80964 18.6862C10.0994 18.5658 10.397 18.4641 10.7004 18.3815C11.0793 18.2617 11.5144 18.1268 11.842 17.9919C12.5399 17.7228 13.2785 17.5675 14.028 17.5324H14.5707C15.3235 17.5253 16.0755 17.4786 16.8232 17.3925C17.2561 17.3469 17.6755 17.2178 18.057 17.0129C18.1104 16.9632 18.1416 16.8951 18.144 16.8231C18.1443 16.6361 18.0688 16.4566 17.9341 16.3236L17.8573 16.2487C17.7037 16.0838 17.5553 15.934 16.8334 15.7742C16.5801 15.7156 16.3208 15.6854 16.0604 15.6842C15.4896 15.7097 14.9264 15.8226 14.3915 16.0189L13.9871 16.1388C13.5115 16.2834 13.0159 16.3558 12.5178 16.3536C12.1753 16.351 11.8334 16.3277 11.4939 16.2836C11.1644 16.1932 10.862 16.0266 10.6125 15.7979C10.363 15.5692 10.1736 15.2852 10.0605 14.97C9.87883 14.4666 9.83992 13.9247 9.94787 13.4015C10.0439 12.9651 10.2079 12.5457 10.4342 12.1578C10.4854 12.0579 10.5366 11.963 10.5827 11.8581C10.988 11.1843 11.4614 10.5518 11.9956 9.96995C12.5076 9.43049 12.8659 9.03089 13.214 8.64628L13.3676 8.47645C13.511 8.31661 13.6543 8.14178 13.8181 7.93699C13.9819 7.73219 14.2789 7.36756 14.5912 7.01791C14.9034 6.66826 15.1645 6.35857 15.4307 6.01891L15.7584 5.61931C16.0227 5.28683 16.2286 4.91377 16.3676 4.51541C16.3955 4.4098 16.3946 4.2989 16.365 4.19374C16.3354 4.08857 16.278 3.99282 16.1986 3.91601C16.1133 3.8622 16.0135 3.83438 15.912 3.83609C15.7554 3.83392 15.6038 3.88918 15.487 3.99093C15.1017 4.35819 14.7584 4.76517 14.4632 5.20472C14.2584 5.48444 14.0434 5.77415 13.8079 6.04388C13.5724 6.31361 13.2243 6.67825 12.9427 6.96796C12.7431 7.17775 12.5536 7.37255 12.3796 7.56236C12.1082 7.85707 11.8676 8.13179 11.6424 8.39154C11.3301 8.75118 11.0281 9.08584 10.7311 9.39054C10.603 9.53598 10.4465 9.65506 10.2707 9.74082C10.0949 9.82658 9.90337 9.87731 9.70726 9.89004C9.51952 9.89498 9.33675 9.83078 9.19532 9.71022C8.86768 9.41052 9.0315 8.75617 9.15436 8.50143L9.54855 7.84208L9.88132 7.19773C10.1373 6.69823 10.4649 5.94898 10.8745 4.91002C11.0229 4.5304 11.2175 4.09583 11.4274 3.63629C11.6373 3.17675 11.8779 2.63729 12.1134 2.07285C12.4052 1.35357 12.2874 0.919007 12.0417 0.804122C11.9558 0.761231 11.8614 0.737081 11.7649 0.733346C11.6685 0.729612 11.5724 0.746379 11.4833 0.782491C11.3942 0.818604 11.3141 0.873195 11.2488 0.94248C11.1835 1.01177 11.1343 1.09409 11.1048 1.18374C10.7977 1.75817 10.5929 2.18274 9.62023 4.49543C9.56903 4.61531 9.44617 4.84508 9.29259 5.13479C9.09293 5.51441 8.83696 5.99393 8.60659 6.46846C8.46324 6.76816 8.33014 7.09283 8.21239 7.37255C8.08789 7.81673 7.86016 8.22695 7.54688 8.57136C7.12709 8.82111 6.71242 8.75117 6.56395 8.41151C6.44346 7.88183 6.44346 7.3328 6.56395 6.80312C6.59979 6.5234 6.63563 6.2287 6.6561 5.93899C6.74313 4.88005 6.8404 4.24568 6.91719 3.81611C6.9735 3.5214 7.10149 2.98195 7.23459 2.45248C7.3677 1.923 7.48544 1.45347 7.54176 1.13879C7.60945 0.833391 7.58272 0.515263 7.46497 0.224699C7.41833 0.163995 7.35813 0.114452 7.28894 0.0798325C7.21976 0.0452134 7.14339 0.0264312 7.06565 0.0249023C6.94852 0.0291753 6.83497 0.0655217 6.73801 0.129793C6.47868 0.379806 6.3113 0.706433 6.26191 1.05886C6.09809 1.69323 6.01618 2.09783 5.92403 2.5274C5.83188 2.95697 5.73461 3.41651 5.55032 4.15577C5.5196 4.28564 5.47864 4.43549 5.43769 4.60032C5.30458 5.09982 5.12541 5.79413 4.96159 6.70322C4.91551 6.95297 4.8848 7.20272 4.85408 7.51241C4.81459 7.93477 4.75308 8.3549 4.66978 8.77115C4.62682 8.89047 4.55922 8.99991 4.47116 9.0927C4.38311 9.18549 4.27646 9.25966 4.15784 9.31061C4.0531 9.35755 3.94018 9.38467 3.82508 9.39054C3.64416 9.38083 3.47229 9.31021 3.33874 9.19073C2.86117 8.55839 2.48008 7.86184 2.20736 7.1228C2.01282 6.6233 1.80804 6.1238 1.6391 5.58934C1.54184 5.28464 1.47528 5.01991 1.39849 4.74518C1.2961 4.36057 1.19372 3.96097 1.0043 3.39653C0.962808 3.28494 0.885704 3.18929 0.784332 3.12365C0.68296 3.05801 0.562674 3.02584 0.441168 3.03189C0.396989 3.02624 0.352243 3.02624 0.308064 3.03189C0.16984 3.07185 -0.0144576 3.16675 0.000900549 3.53139C0.047721 4.07236 0.140184 4.60865 0.277348 5.13479C0.492362 5.94398 0.640824 6.38854 0.855838 7.00292L1.04014 7.53739C1.2142 8.03689 1.39849 8.57135 1.55207 9.17575C1.73261 9.84772 1.7414 10.5526 1.57767 11.2287L1.49576 11.5034C1.30122 12.1278 0.983822 13.0669 0.799524 13.9759C0.651578 14.6001 0.57602 15.2384 0.574272 15.879C0.558382 16.1447 0.604495 16.4104 0.709135 16.6561C0.813775 16.9018 0.974214 17.1212 1.17836 17.2976C1.36367 17.4493 1.5624 17.5847 1.77221 17.7022Z" fill="#D9F1AD"/>
    </symbol>


</svg>