<svg version="1.1" xmlns="http://www.w3.org/2000/svg" xmlns:xlink="http://www.w3.org/1999/xlink">
    <symbol id="logo" viewBox="0 0 214 53">
        <path d="M3.32384 51.4167C2.34387 50.7959 1.63281 49.4377 1.19066 47.3422C0.711145 44.9362 0.412955 42.4976 0.29861 40.0469C0.14347 37.2813 0.0917566 34.3451 0.14347 31.2381C0.195183 28.1311 0.221039 25.2337 0.221039 22.5458C0.221039 18.5618 0.156398 15.134 0.0271146 12.2624C-0.102169 9.39083 0.208111 7.03665 0.957954 5.19988C1.70521 3.36569 3.15318 2.03338 5.30187 1.20295C7.45056 0.372522 10.799 0.0103411 15.3472 0.116408C17.9583 0.130715 20.5411 0.6581 22.949 1.66861C25.086 2.557 27.0243 3.86307 28.6504 5.51032C30.1583 7.06015 31.3214 8.91158 32.0635 10.943C32.8112 12.9764 33.1154 15.1463 32.9556 17.3071C32.7667 19.6136 32.0785 21.8513 30.9387 23.8651C29.5984 26.2125 27.8055 28.2702 25.664 29.9187C26.0167 30.7882 26.4315 31.6311 26.9051 32.4411C27.4714 33.45 28.0919 34.5495 28.7668 35.7395C29.4416 36.9295 30.1087 38.1764 30.7681 39.4803C31.4378 40.7738 32.0196 41.9897 32.5134 43.128C32.9605 44.1199 33.286 45.1623 33.483 46.2324C33.6382 47.1637 33.5347 47.8881 33.1728 48.4055C31.4145 50.7829 29.7726 52.0506 28.2471 52.2084C26.7215 52.3662 25.2089 51.7065 23.7092 50.2293C22.2095 48.7547 20.684 46.6023 19.1326 43.7721C17.5812 40.942 15.9264 37.747 14.1681 34.1873C14.0634 34.1873 13.9858 34.6258 13.9354 35.5067C13.885 36.3875 13.8074 37.3421 13.7027 38.3782C13.5993 39.62 13.5217 40.9911 13.47 42.4916C13.5271 44.4351 13.2111 46.3715 12.5391 48.1959C12.0614 49.521 11.2458 50.6982 10.1733 51.6108C9.25106 52.3492 8.09592 52.7344 6.91533 52.6973C5.6177 52.6364 4.36751 52.1906 3.32384 51.4167ZM13.1752 20.3727C13.1752 21.097 13.5889 21.4592 14.4163 21.4592C15.3425 21.433 16.2481 21.1799 17.0537 20.7219C18.0178 20.204 18.8736 19.5058 19.5747 18.6652C19.9285 18.2813 20.1976 17.8273 20.3646 17.3326C20.5317 16.8379 20.5929 16.3136 20.5444 15.7937C20.4946 14.9088 20.1684 14.0619 19.6116 13.3726C19.0549 12.6833 18.2958 12.1864 17.4416 11.952C16.6614 11.7186 15.8512 11.6009 15.0369 11.6027H12.8649L13.1752 20.3727Z" fill="#EA8F00"/>
        <path d="M62.6649 50.6407C61.3602 51.3697 59.9454 51.8808 58.4761 52.1541C57.0203 52.4359 55.534 52.5272 54.0546 52.4257C51.7145 52.1542 49.3952 51.7264 47.1121 51.1451C44.8319 50.59 42.7341 49.4536 41.0229 47.8467C38.8732 45.407 37.3902 42.4529 36.7178 39.2708C36.016 36.1995 36.0692 33.0037 36.8729 29.9576C37.6759 26.9757 39.2708 24.2671 41.4883 22.1189C43.7611 19.8682 46.7346 18.4842 50.4089 17.9668C52.6282 17.605 54.8881 17.5658 57.1187 17.8504C59.3445 18.1038 61.4544 18.9778 63.2079 20.3727C64.1849 21.2979 65.0096 22.3718 65.6514 23.5547C66.2908 24.7301 66.7361 26.0012 66.97 27.3188C67.2016 28.6293 67.1884 29.9713 66.9313 31.2769C66.6589 32.6226 66.0744 33.8853 65.2247 34.9634C64.0309 35.9204 62.6602 36.6325 61.1911 37.0589C59.7218 37.4776 58.2148 37.7506 56.692 37.8738C55.1406 38.0006 53.5763 38.0523 51.999 38.029C50.4218 38.0057 48.8833 38.0187 47.3836 38.0678C47.5452 39.0102 48.058 39.8562 48.8187 40.4349C49.5978 41.0753 50.5649 41.4432 51.5724 41.4827C52.5781 41.5875 53.592 41.5875 54.5976 41.4827C55.6319 41.3766 56.6662 41.2861 57.7004 41.211C58.7203 41.1334 59.7446 41.1334 60.7645 41.211C61.7873 41.2937 62.78 41.5983 63.6733 42.1036C64.2859 42.6613 64.7407 43.3706 64.992 44.1602C65.2463 44.9351 65.3387 45.754 65.2635 46.5661C65.1819 47.3783 64.9167 48.1613 64.4878 48.8556C64.036 49.5915 63.4099 50.2046 62.6649 50.6407ZM48.935 30.7725C51.3113 31.1346 53.0178 31.1476 54.0546 30.8113C55.0863 30.4737 55.6836 30.008 55.8388 29.4143C55.9078 29.0978 55.8901 28.7685 55.7878 28.4612C55.6854 28.1538 55.502 27.8798 55.257 27.6681C54.733 27.1077 54.0367 26.7389 53.2789 26.6203C52.8458 26.5699 52.4069 26.6056 51.9875 26.7255C51.5682 26.8454 51.1767 27.047 50.8355 27.3188C49.9822 27.9242 49.3487 29.0754 48.935 30.7725Z" fill="#EA8F00"/>
        <path d="M82.0574 21.9249C83.7095 20.598 85.7568 19.8606 87.8751 19.8294C90.0269 19.7751 92.1626 20.2131 94.1195 21.11C96.1408 22.0376 97.9496 23.3717 99.433 25.0293C100.922 26.619 101.965 28.5731 102.458 30.6948C103.324 33.6283 103.73 36.6785 103.661 39.7364C103.652 42.926 103.353 46.1082 102.769 49.2437C102.432 49.896 101.955 50.4658 101.372 50.9123C100.752 51.4047 100.058 51.7975 99.3167 52.0764C98.5659 52.3593 97.7851 52.5546 96.9896 52.6585C96.2564 52.7635 95.512 52.7635 94.7788 52.6585C94.3603 52.617 93.9559 52.4843 93.5941 52.2698C93.2323 52.0552 92.9218 51.7641 92.6844 51.4167C92.171 50.709 91.8502 49.88 91.7536 49.0108C91.6507 47.8238 91.6118 46.632 91.6372 45.4408C91.6605 44.3038 91.676 43.1629 91.676 42.0259C91.676 40.8889 91.6372 39.748 91.5597 38.6111C91.4754 37.4363 91.3069 36.2692 91.0555 35.1186C90.7973 34.4491 90.3184 33.8878 89.698 33.5276C89.0721 33.1472 88.3704 32.9087 87.6424 32.8291C86.9326 32.7489 86.2139 32.8421 85.548 33.1007C85.2214 33.2231 84.9227 33.4098 84.6695 33.6497C84.4164 33.8897 84.2139 34.1781 84.0742 34.4977C83.5206 35.6316 83.1664 36.8524 83.027 38.1066C82.8954 39.3308 82.8436 40.5622 82.8718 41.7931C82.8951 43.0348 82.921 44.2766 82.9494 45.5184C82.9711 46.7915 82.8803 48.0641 82.6779 49.3213C82.4931 49.961 82.1672 50.5511 81.7242 51.0481C81.2811 51.5451 80.7323 51.9363 80.1181 52.1928C78.9207 52.7044 77.6064 52.8788 76.3172 52.6973C75.0239 52.5172 73.811 51.9644 72.8265 51.1063C72.3117 50.6657 71.8991 50.118 71.6178 49.5013C71.3364 48.8847 71.193 48.2141 71.1976 47.5362C71.1976 43.7049 71.1588 40.0313 71.0812 36.5156C71.0036 32.9998 70.939 29.5333 70.8873 26.1158C70.833 22.701 70.833 19.2732 70.8873 15.8325C70.9416 12.3917 71.045 8.83461 71.1976 5.16106C71.3961 4.19112 71.9153 3.3163 72.6714 2.67754C73.4262 2.01569 74.3318 1.54932 75.3088 1.31936C76.2791 1.08569 77.2925 1.09903 78.2564 1.35817C79.2221 1.60723 80.0718 2.18312 80.6611 2.98798C81.1343 4.66172 81.446 6.37699 81.5919 8.11025C81.6928 9.61331 81.7316 11.062 81.7083 12.4564C81.685 13.8508 81.6592 15.2995 81.6307 16.8026C81.6215 18.5193 81.7643 20.2334 82.0574 21.9249Z" fill="#EA8F00"/>
        <path d="M136.822 47.8467C137.132 49.3497 136.848 50.5009 135.968 51.3003C135.089 52.0997 133.874 52.5266 132.323 52.5809C131.15 52.6149 129.985 52.3897 128.91 51.9212C127.89 51.4323 126.906 50.8749 125.962 50.2526C124.738 50.3686 123.521 50.5499 122.316 50.7959C121.021 51.056 119.714 51.2503 118.399 51.3779C117.097 51.5071 115.786 51.5201 114.482 51.4167C113.203 51.3175 111.96 50.9471 110.836 50.3302C109.313 49.4764 108.103 48.1573 107.384 46.5661C106.537 44.8573 106.036 42.9978 105.91 41.0946C105.772 39.2202 106.05 37.3385 106.725 35.5843C107.327 33.908 108.511 32.5036 110.06 31.6261C110.836 31.2122 111.547 30.863 112.193 30.5784C112.866 30.2853 113.568 30.0642 114.288 29.9187C115.038 29.7635 115.878 29.6342 116.809 29.5307C117.74 29.4272 118.877 29.3496 120.222 29.2978C121.463 28.0043 121.295 27.086 119.718 26.5427C118.14 25.9994 115.283 26.2452 111.146 27.28C109.644 27.0213 108.635 26.3487 108.121 25.2621C107.602 24.175 107.465 22.9443 107.733 21.7697C108.024 20.4619 108.637 19.2479 109.517 18.2384C110.384 17.1648 111.586 16.4133 112.93 16.1041C117.375 15.328 121.305 15.328 124.721 16.1041C128.137 16.8802 130.839 18.3031 132.827 20.3727C134.815 22.4423 136.005 25.081 136.395 28.2889C136.786 31.4968 136.178 35.1186 134.572 39.1543C134.136 39.8753 133.971 40.7284 134.107 41.5603C134.266 42.2973 134.541 43.0045 134.921 43.6557L136.085 45.6736C136.471 46.3424 136.721 47.0809 136.822 47.8467ZM119.058 42.2587C119.364 42.3605 119.691 42.3854 120.008 42.3313C120.326 42.2771 120.626 42.1456 120.881 41.9483C121.449 41.5654 121.893 41.0263 122.161 40.3961C122.288 40.1098 122.357 39.8012 122.363 39.4881C122.37 39.175 122.314 38.8637 122.2 38.5723C121.967 37.9798 121.359 37.6047 120.377 37.4469C119.291 37.2412 118.438 37.3421 117.778 37.7574C117.492 37.9175 117.241 38.1343 117.041 38.3945C116.841 38.6546 116.696 38.9528 116.615 39.2708C116.556 39.5877 116.563 39.9135 116.637 40.2275C116.71 40.5414 116.848 40.8367 117.041 41.0946C117.276 41.4202 117.577 41.6924 117.925 41.893C118.273 42.0937 118.659 42.2184 119.058 42.2587Z" fill="#EA8F00"/>
        <path d="M156.521 49.0885C156.415 49.6074 156.174 50.0892 155.823 50.4855C155.429 50.9264 154.971 51.3057 154.465 51.6108C153.928 51.9451 153.356 52.2185 152.759 52.4257C152.213 52.6176 151.656 52.7731 151.091 52.8914C150.413 53.0463 149.707 53.033 149.035 52.8526C148.281 52.6698 147.561 52.3686 146.902 51.96C146.261 51.574 145.696 51.0743 145.234 50.4855C144.819 49.9819 144.587 49.3528 144.575 48.7004C144.526 45.5469 144.474 42.4166 144.42 39.3096C144.365 36.2026 144.288 33.0723 144.187 29.9188C142.274 29.867 140.981 29.3367 140.309 28.3277C139.651 27.3769 139.374 26.2135 139.533 25.0681C139.696 23.8877 140.225 22.7883 141.045 21.9249C141.406 21.4922 141.866 21.1533 142.386 20.9371C142.906 20.7209 143.471 20.6337 144.032 20.6831C144.032 19.5462 144.071 18.2501 144.148 16.8026C144.226 15.3552 144.369 13.8651 144.575 12.34C144.773 10.8535 145.097 9.38654 145.545 7.95507C145.94 6.64424 146.557 5.41062 147.367 4.30739C148.342 3.11382 149.575 2.15828 150.974 1.51343C152.496 0.718361 154.154 0.218057 155.861 0.0388321C157.36 -0.14487 158.877 0.183301 160.166 0.970154C161.408 1.74626 162.002 3.16911 161.951 5.23872C161.822 5.89389 161.586 6.52327 161.252 7.10136C160.931 7.63166 160.554 8.12601 160.128 8.57595C159.691 9.04161 159.238 9.50727 158.77 9.97294C158.302 10.4386 157.837 10.9301 157.374 11.4475C156.693 12.5525 156.282 13.8019 156.172 15.0952C156.094 16.2865 156.082 17.6292 156.133 19.1309C157.635 18.8205 158.863 18.8593 159.817 19.2474C160.702 19.5773 161.452 20.1914 161.951 20.9936C162.425 21.8033 162.654 22.7335 162.61 23.6711C162.585 24.6767 162.319 25.6616 161.834 26.5427C161.271 27.5627 160.445 28.4136 159.443 29.0071C158.44 29.6007 157.298 29.9154 156.133 29.9188C156.133 33.0232 156.262 36.2181 156.521 39.5036C156.781 42.6933 156.781 45.8988 156.521 49.0885Z" fill="#EA8F00"/>
        <path d="M171.492 17.4701C173.092 17.2269 174.333 17.4985 175.215 18.285C176.171 19.2034 176.832 20.3852 177.115 21.6804C177.532 23.3967 177.74 25.1569 177.736 26.923C177.762 28.9434 177.723 31.0738 177.62 33.3142C177.516 35.5545 177.426 37.8195 177.348 40.109C177.266 42.24 177.331 44.3741 177.542 46.4963C177.589 47.1235 177.51 47.7537 177.31 48.3501C177.11 48.9464 176.794 49.4969 176.379 49.9693C175.415 51.099 174.054 51.8134 172.578 51.9639C171.694 52.1155 170.786 52.0393 169.94 51.7427C169.169 51.479 168.457 51.0649 167.846 50.5242C167.288 50.0216 166.828 49.4204 166.488 48.7508C166.16 48.1762 166.033 47.5083 166.128 46.8533C165.916 44.9771 165.799 43.0913 165.779 41.2033C165.75 39.2087 165.75 37.1895 165.779 35.1458C165.807 33.102 165.846 31.0829 165.895 29.0883C165.944 27.0937 165.944 25.1858 165.895 23.3646C165.959 22.703 166.102 22.0516 166.322 21.4243C166.552 20.728 166.893 20.073 167.33 19.484C167.789 18.8771 168.37 18.3733 169.037 18.0056C169.795 17.617 170.641 17.4325 171.492 17.4701Z" fill="#EA8F00"/>
        <path d="M182.507 48.7004C181.904 47.4444 181.754 46.0189 182.08 44.6647C182.43 43.3938 183.008 42.1972 183.786 41.1334C184.598 40.0062 185.479 38.9306 186.424 37.9126C187.33 36.9443 188.123 35.8768 188.79 34.7306C188.076 33.7616 187.298 32.8412 186.463 31.9754C185.661 31.1548 184.91 30.2865 184.213 29.3755C183.556 28.5228 183.02 27.5824 182.623 26.5815C182.227 25.4865 182.16 24.2995 182.429 23.1667C182.526 22.2427 182.937 21.3799 183.593 20.7219C184.263 20.0249 185.086 19.4935 185.997 19.1697C186.928 18.8334 187.918 18.6882 188.906 18.7429C189.837 18.7689 190.74 19.0656 191.505 19.5966C192.042 20.0254 192.536 20.5063 192.979 21.0324C193.545 21.6817 194.114 22.3543 194.685 23.0502L196.353 25.1069C196.896 25.7795 197.322 26.3228 197.633 26.7367C198.169 25.6905 198.792 24.691 199.494 23.7487C200.276 22.6817 201.145 21.6822 202.093 20.7607C203.001 19.8671 204.002 19.0735 205.079 18.3936C206.015 17.7772 207.102 17.4283 208.221 17.3847C209.308 17.3678 210.371 17.7086 211.246 18.3548C212.2 19.0249 213.067 20.2407 213.845 22.0025C213.963 23.26 213.721 24.5252 213.147 25.6502C212.568 26.7519 211.88 27.792 211.091 28.7546C210.29 29.7351 209.449 30.7311 208.57 31.7426C207.718 32.708 207.013 33.7931 206.476 34.9634C207.52 36.4796 208.688 37.9073 209.966 39.232C211.233 40.5467 212.375 41.9756 213.379 43.5005C213.89 44.4077 214.094 45.4558 213.961 46.4885C213.834 47.5429 213.462 48.5529 212.875 49.4377C212.278 50.3461 211.465 51.0926 210.509 51.6108C209.543 52.1508 208.424 52.3554 207.329 52.1929C206.305 51.8369 205.348 51.3122 204.498 50.6407C203.644 49.9693 202.814 49.2553 202.015 48.5064C201.216 47.7574 200.425 47.0046 199.65 46.2557C198.903 45.5315 198.099 44.8696 197.245 44.2766C195.484 46.9154 193.752 48.9332 192.048 50.3302C191.344 50.9373 190.561 51.4464 189.721 51.8436C188.948 52.22 188.097 52.4063 187.238 52.3869C186.353 52.3412 185.502 52.0303 184.795 51.4944C183.838 50.741 183.057 49.7874 182.507 48.7004Z" fill="#EA8F00"/>
        <path d="M173.586 13.931C171.308 14.0862 169.537 13.6723 168.272 12.6893C167.008 11.7062 166.284 10.5808 166.101 9.31322C165.917 8.043 166.318 6.84004 167.303 5.70434C168.288 4.56865 169.891 3.89603 172.112 3.68648C173.922 3.53126 175.293 3.90637 176.223 4.81183C177.124 5.65442 177.677 6.80309 177.775 8.03265C177.872 9.30548 177.544 10.5746 176.844 11.6415C176.481 12.2212 176.006 12.7224 175.446 13.1156C174.887 13.5088 174.254 13.786 173.586 13.931Z" fill="#EA8F00"/>
    </symbol>

    <symbol id="mail" viewBox="0 0 24 24">
        <path d="M2 19.5H22V12V4.5H12H2V12V19.5Z"/>
        <path d="M2 4.5L12 12L22 4.5"/>
        <path d="M12 4.5H2V12"/>
        <path d="M22 12V4.5H12"/>
    </symbol>


    <symbol id="user" viewBox="0 0 24 24">
        <path d="M5.5 19.5C7 18.5 9 18 10 17C11 16 8 16 8 11C8 6 12 6 12 6C12 6 16 6 16 11C16 16 13 16 14 17C15 18 17 18.5 18.5 19.5" stroke="#D9F1AD" stroke-width="1.5" stroke-linecap="round"/>
        <path fill-rule="evenodd" clip-rule="evenodd" d="M12 22C17.5228 22 22 17.5228 22 12C22 6.47715 17.5228 2 12 2C6.47715 2 2 6.47715 2 12C2 17.5228 6.47715 22 12 22Z" stroke="#D9F1AD" stroke-width="1.5"/>
    </symbol>

    <symbol id="main-cards1" viewBox="0 0 192 192" fill="none">
        <path fill-rule="evenodd" clip-rule="evenodd" d="M25.918 34.8029C28.7883 31.4439 33.8381 31.0478 37.1971 33.918L85.1971 74.934C86.9758 76.4539 88 78.6763 88 81.016V119.873C88 121.424 87.5493 122.941 86.7027 124.241L50.1311 180.367C47.719 184.069 42.7628 185.115 39.061 182.703C35.3592 180.291 34.3137 175.334 36.7257 171.633L72 117.497V84.7029L26.8029 46.082C23.4439 43.2117 23.0478 38.1619 25.918 34.8029Z" fill="#85BC20"/>
        <path fill-rule="evenodd" clip-rule="evenodd" d="M166.082 34.8029C168.952 38.1619 168.556 43.2117 165.197 46.082L120 84.7029V117.497L155.274 171.633C157.686 175.334 156.641 180.291 152.939 182.703C149.237 185.115 144.281 184.069 141.869 180.367L105.297 124.241C104.451 122.941 104 121.424 104 119.873V81.016C104 78.6763 105.024 76.4539 106.803 74.934L154.803 33.918C158.162 31.0478 163.212 31.4439 166.082 34.8029Z" fill="#85BC20"/>
        <path fill-rule="evenodd" clip-rule="evenodd" d="M96 24C91.5817 24 88 27.5817 88 32C88 36.4183 91.5817 40 96 40C100.418 40 104 36.4183 104 32C104 27.5817 100.418 24 96 24ZM72 32C72 18.7452 82.7452 8 96 8C109.255 8 120 18.7452 120 32C120 45.2548 109.255 56 96 56C82.7452 56 72 45.2548 72 32Z" fill="#85BC20"/>
    </symbol>
    <symbol id="main-cards2" viewBox="0 0 192 192" fill="none">
        <path d="M168 176H24C21.8783 176 19.8434 175.157 18.3431 173.657C16.8429 172.157 16 170.122 16 168V24C16 21.8783 16.8429 19.8434 18.3431 18.3431C19.8434 16.8429 21.8783 16 24 16C26.1217 16 28.1566 16.8429 29.6569 18.3431C31.1571 19.8434 32 21.8783 32 24V160H168C170.122 160 172.157 160.843 173.657 162.343C175.157 163.843 176 165.878 176 168C176 170.122 175.157 172.157 173.657 173.657C172.157 175.157 170.122 176 168 176Z" fill="#EA8F00"/>
        <path d="M56 144C53.8783 144 51.8434 143.157 50.3431 141.657C48.8429 140.157 48 138.122 48 136V120C48 117.878 48.8429 115.843 50.3431 114.343C51.8434 112.843 53.8783 112 56 112C58.1217 112 60.1566 112.843 61.6569 114.343C63.1571 115.843 64 117.878 64 120V136C64 138.122 63.1571 140.157 61.6569 141.657C60.1566 143.157 58.1217 144 56 144Z" fill="#EA8F00"/>
        <path d="M88 144C85.8783 144 83.8434 143.157 82.3431 141.657C80.8429 140.157 80 138.122 80 136V88C80 85.8783 80.8429 83.8434 82.3431 82.3431C83.8434 80.8429 85.8783 80 88 80C90.1217 80 92.1566 80.8429 93.6569 82.3431C95.1571 83.8434 96 85.8783 96 88V136C96 138.122 95.1571 140.157 93.6569 141.657C92.1566 143.157 90.1217 144 88 144Z" fill="#EA8F00"/>
        <path d="M120 144C117.878 144 115.843 143.157 114.343 141.657C112.843 140.157 112 138.122 112 136V24C112 21.8783 112.843 19.8434 114.343 18.3431C115.843 16.8429 117.878 16 120 16C122.122 16 124.157 16.8429 125.657 18.3431C127.157 19.8434 128 21.8783 128 24V136C128 138.122 127.157 140.157 125.657 141.657C124.157 143.157 122.122 144 120 144Z" fill="#EA8F00"/>
        <path d="M152 144C149.878 144 147.843 143.157 146.343 141.657C144.843 140.157 144 138.122 144 136V56C144 53.8783 144.843 51.8434 146.343 50.3431C147.843 48.8429 149.878 48 152 48C154.122 48 156.157 48.8429 157.657 50.3431C159.157 51.8434 160 53.8783 160 56V136C160 138.122 159.157 140.157 157.657 141.657C156.157 143.157 154.122 144 152 144Z" fill="#EA8F00"/>
    </symbol>
    <symbol id="main-cards3" viewBox="0 0 192 192" fill="none">
        <path fill-rule="evenodd" clip-rule="evenodd" d="M24 16C24 11.5817 27.5817 8 32 8H136C140.418 8 144 11.5817 144 16V40C144 44.4183 140.418 48 136 48C131.582 48 128 44.4183 128 40V24H40V139.056L52.4223 132.845C56.3741 130.869 61.1795 132.47 63.1554 136.422C65.1313 140.374 63.5295 145.18 59.5777 147.155L35.5777 159.155C33.0978 160.395 30.1527 160.263 27.7942 158.805C25.4356 157.348 24 154.773 24 152V16Z" fill="#007AC3"/>
        <path fill-rule="evenodd" clip-rule="evenodd" d="M48 40C48 35.5817 51.5817 32 56 32H160C164.418 32 168 35.5817 168 40V176C168 178.753 166.585 181.312 164.254 182.775C161.922 184.239 159.003 184.401 156.523 183.205L108 159.792L59.4766 183.205C56.9975 184.401 54.0776 184.239 51.7463 182.775C49.4151 181.312 48 178.753 48 176V40ZM64 48V163.257L104.523 143.704C106.72 142.644 109.28 142.644 111.477 143.704L152 163.257V48H64Z" fill="#007AC3"/>
        <path fill-rule="evenodd" clip-rule="evenodd" d="M107.799 59.7988C112.217 59.7988 115.799 63.3805 115.799 67.7988V115.799C115.799 120.217 112.217 123.799 107.799 123.799C103.381 123.799 99.7988 120.217 99.7988 115.799V67.7988C99.7988 63.3805 103.381 59.7988 107.799 59.7988Z" fill="#007AC3"/>
        <path fill-rule="evenodd" clip-rule="evenodd" d="M75.7988 91.7988C75.7988 87.3805 79.3805 83.7988 83.7988 83.7988H131.799C136.217 83.7988 139.799 87.3805 139.799 91.7988C139.799 96.2171 136.217 99.7988 131.799 99.7988H83.7988C79.3805 99.7988 75.7988 96.2171 75.7988 91.7988Z" fill="#007AC3"/>
    </symbol>
    <symbol id="arrow-r" viewBox="0 0 24 24">
        <path d="M22 13C21.9984 12.8693 21.9712 12.7402 21.92 12.62C21.9061 12.5834 21.8858 12.5495 21.86 12.52C21.8159 12.4397 21.7657 12.3628 21.71 12.29L16.71 7.29C16.6168 7.19676 16.5061 7.1228 16.3842 7.07234C16.2624 7.02188 16.1319 6.99591 16 6.99591C15.7337 6.99591 15.4783 7.1017 15.29 7.29C15.1968 7.38324 15.1228 7.49393 15.0723 7.61575C15.0219 7.73758 14.9959 7.86814 14.9959 8C14.9959 8.2663 15.1017 8.5217 15.29 8.71L18.59 12H3C2.73478 12 2.48043 12.1054 2.29289 12.2929C2.10536 12.4804 2 12.7348 2 13C2 13.2652 2.10536 13.5196 2.29289 13.7071C2.48043 13.8946 2.73478 14 3 14H18.58L15.29 17.29C15.1963 17.383 15.1219 17.4936 15.0711 17.6154C15.0203 17.7373 14.9942 17.868 14.9942 18C14.9942 18.132 15.0203 18.2627 15.0711 18.3846C15.1219 18.5064 15.1963 18.617 15.29 18.71C15.383 18.8037 15.4936 18.8781 15.6154 18.9289C15.7373 18.9797 15.868 19.0058 16 19.0058C16.132 19.0058 16.2627 18.9797 16.3846 18.9289C16.5064 18.8781 16.617 18.8037 16.71 18.71L21.71 13.71C21.8094 13.6138 21.8877 13.498 21.94 13.37C21.9751 13.284 21.9954 13.1928 22 13.1V13Z"/>
    </symbol>
    <symbol id="siluet" width="19" height="20" viewBox="0 0 19 20" fill="none" xmlns="http://www.w3.org/2000/svg">
        <path fill-rule="evenodd" clip-rule="evenodd" d="M1.77221 17.7022C1.97863 17.8042 2.16841 17.9355 2.33534 18.0918C2.56224 18.3336 2.75979 18.6001 2.92407 18.886C3.03324 19.0811 3.16185 19.2651 3.30802 19.4355C3.43632 19.5807 3.59288 19.6996 3.76864 19.7854C3.94439 19.8711 4.13585 19.922 4.3319 19.935C4.66188 19.9679 4.99336 19.9846 5.32506 19.9849C5.95369 19.983 6.58023 19.9143 7.19364 19.7801C7.74747 19.6469 8.28225 19.4473 8.78577 19.1857C8.88304 19.1308 9.69702 18.7212 9.80964 18.6862C10.0994 18.5658 10.397 18.4641 10.7004 18.3815C11.0793 18.2617 11.5144 18.1268 11.842 17.9919C12.5399 17.7228 13.2785 17.5675 14.028 17.5324H14.5707C15.3235 17.5253 16.0755 17.4786 16.8232 17.3925C17.2561 17.3469 17.6755 17.2178 18.057 17.0129C18.1104 16.9632 18.1416 16.8951 18.144 16.8231C18.1443 16.6361 18.0688 16.4566 17.9341 16.3236L17.8573 16.2487C17.7037 16.0838 17.5553 15.934 16.8334 15.7742C16.5801 15.7156 16.3208 15.6854 16.0604 15.6842C15.4896 15.7097 14.9264 15.8226 14.3915 16.0189L13.9871 16.1388C13.5115 16.2834 13.0159 16.3558 12.5178 16.3536C12.1753 16.351 11.8334 16.3277 11.4939 16.2836C11.1644 16.1932 10.862 16.0266 10.6125 15.7979C10.363 15.5692 10.1736 15.2852 10.0605 14.97C9.87883 14.4666 9.83992 13.9247 9.94787 13.4015C10.0439 12.9651 10.2079 12.5457 10.4342 12.1578C10.4854 12.0579 10.5366 11.963 10.5827 11.8581C10.988 11.1843 11.4614 10.5518 11.9956 9.96995C12.5076 9.43049 12.8659 9.03089 13.214 8.64628L13.3676 8.47645C13.511 8.31661 13.6543 8.14178 13.8181 7.93699C13.9819 7.73219 14.2789 7.36756 14.5912 7.01791C14.9034 6.66826 15.1645 6.35857 15.4307 6.01891L15.7584 5.61931C16.0227 5.28683 16.2286 4.91377 16.3676 4.51541C16.3955 4.4098 16.3946 4.2989 16.365 4.19374C16.3354 4.08857 16.278 3.99282 16.1986 3.91601C16.1133 3.8622 16.0135 3.83438 15.912 3.83609C15.7554 3.83392 15.6038 3.88918 15.487 3.99093C15.1017 4.35819 14.7584 4.76517 14.4632 5.20472C14.2584 5.48444 14.0434 5.77415 13.8079 6.04388C13.5724 6.31361 13.2243 6.67825 12.9427 6.96796C12.7431 7.17775 12.5536 7.37255 12.3796 7.56236C12.1082 7.85707 11.8676 8.13179 11.6424 8.39154C11.3301 8.75118 11.0281 9.08584 10.7311 9.39054C10.603 9.53598 10.4465 9.65506 10.2707 9.74082C10.0949 9.82658 9.90337 9.87731 9.70726 9.89004C9.51952 9.89498 9.33675 9.83078 9.19532 9.71022C8.86768 9.41052 9.0315 8.75617 9.15436 8.50143L9.54855 7.84208L9.88132 7.19773C10.1373 6.69823 10.4649 5.94898 10.8745 4.91002C11.0229 4.5304 11.2175 4.09583 11.4274 3.63629C11.6373 3.17675 11.8779 2.63729 12.1134 2.07285C12.4052 1.35357 12.2874 0.919007 12.0417 0.804122C11.9558 0.761231 11.8614 0.737081 11.7649 0.733346C11.6685 0.729612 11.5724 0.746379 11.4833 0.782491C11.3942 0.818604 11.3141 0.873195 11.2488 0.94248C11.1835 1.01177 11.1343 1.09409 11.1048 1.18374C10.7977 1.75817 10.5929 2.18274 9.62023 4.49543C9.56903 4.61531 9.44617 4.84508 9.29259 5.13479C9.09293 5.51441 8.83696 5.99393 8.60659 6.46846C8.46324 6.76816 8.33014 7.09283 8.21239 7.37255C8.08789 7.81673 7.86016 8.22695 7.54688 8.57136C7.12709 8.82111 6.71242 8.75117 6.56395 8.41151C6.44346 7.88183 6.44346 7.3328 6.56395 6.80312C6.59979 6.5234 6.63563 6.2287 6.6561 5.93899C6.74313 4.88005 6.8404 4.24568 6.91719 3.81611C6.9735 3.5214 7.10149 2.98195 7.23459 2.45248C7.3677 1.923 7.48544 1.45347 7.54176 1.13879C7.60945 0.833391 7.58272 0.515263 7.46497 0.224699C7.41833 0.163995 7.35813 0.114452 7.28894 0.0798325C7.21976 0.0452134 7.14339 0.0264312 7.06565 0.0249023C6.94852 0.0291753 6.83497 0.0655217 6.73801 0.129793C6.47868 0.379806 6.3113 0.706433 6.26191 1.05886C6.09809 1.69323 6.01618 2.09783 5.92403 2.5274C5.83188 2.95697 5.73461 3.41651 5.55032 4.15577C5.5196 4.28564 5.47864 4.43549 5.43769 4.60032C5.30458 5.09982 5.12541 5.79413 4.96159 6.70322C4.91551 6.95297 4.8848 7.20272 4.85408 7.51241C4.81459 7.93477 4.75308 8.3549 4.66978 8.77115C4.62682 8.89047 4.55922 8.99991 4.47116 9.0927C4.38311 9.18549 4.27646 9.25966 4.15784 9.31061C4.0531 9.35755 3.94018 9.38467 3.82508 9.39054C3.64416 9.38083 3.47229 9.31021 3.33874 9.19073C2.86117 8.55839 2.48008 7.86184 2.20736 7.1228C2.01282 6.6233 1.80804 6.1238 1.6391 5.58934C1.54184 5.28464 1.47528 5.01991 1.39849 4.74518C1.2961 4.36057 1.19372 3.96097 1.0043 3.39653C0.962808 3.28494 0.885704 3.18929 0.784332 3.12365C0.68296 3.05801 0.562674 3.02584 0.441168 3.03189C0.396989 3.02624 0.352243 3.02624 0.308064 3.03189C0.16984 3.07185 -0.0144576 3.16675 0.000900549 3.53139C0.047721 4.07236 0.140184 4.60865 0.277348 5.13479C0.492362 5.94398 0.640824 6.38854 0.855838 7.00292L1.04014 7.53739C1.2142 8.03689 1.39849 8.57135 1.55207 9.17575C1.73261 9.84772 1.7414 10.5526 1.57767 11.2287L1.49576 11.5034C1.30122 12.1278 0.983822 13.0669 0.799524 13.9759C0.651578 14.6001 0.57602 15.2384 0.574272 15.879C0.558382 16.1447 0.604495 16.4104 0.709135 16.6561C0.813775 16.9018 0.974214 17.1212 1.17836 17.2976C1.36367 17.4493 1.5624 17.5847 1.77221 17.7022Z" fill="#D9F1AD"/>
    </symbol>
    <symbol id="close" viewBox="0 0 22 22">
        <path d="M11 0C4.935 0 0 4.935 0 11C0 17.065 4.935 22 11 22C17.065 22 22 17.065 22 11C22 4.935 17.065 0 11 0ZM11 20C6.038 20 2 15.963 2 11C2 6.038 6.038 2 11 2C15.963 2 20 6.038 20 11C20 15.963 15.963 20 11 20Z"/>
        <path d="M7.29299 14.7067C7.68399 15.0977 8.31599 15.0977 8.70699 14.7067L11 12.4137L13.293 14.7067C13.684 15.0977 14.316 15.0977 14.707 14.7067C15.098 14.3157 15.098 13.6837 14.707 13.2927L12.414 10.9997L14.707 8.70672C15.098 8.31572 15.098 7.68372 14.707 7.29272C14.512 7.09772 14.256 6.99972 14 6.99972C13.744 6.99972 13.488 7.09772 13.293 7.29272L11 9.58572L8.70699 7.29272C8.51199 7.09772 8.256 6.99972 7.99999 6.99972C7.74399 6.99972 7.488 7.09772 7.293 7.29272C6.902 7.68372 6.902 8.31572 7.293 8.70672L9.586 10.9997L7.29299 13.2927C6.90199 13.6837 6.90199 14.3157 7.29299 14.7067Z"/>
    </symbol>

    <symbol id="plus" viewBox="0 0 22 22">
        <path d="M11 0C4.935 0 0 4.935 0 11C0 17.065 4.935 22 11 22C17.065 22 22 17.065 22 11C22 4.935 17.065 0 11 0ZM11 20C6.038 20 2 15.963 2 11C2 6.038 6.038 2 11 2C15.963 2 20 6.038 20 11C20 15.963 15.963 20 11 20Z"/>
        <path d="M16.2424 11C16.2424 10.447 15.7955 10.0001 15.2426 10.0001L11.9998 10.0001L11.9998 6.75734C11.9998 6.20438 11.5529 5.75749 10.9999 5.75749C10.447 5.75749 10.0001 6.20438 10.0001 6.75734L10.0001 10.0001L6.75728 10.0001C6.20432 10.0001 5.75743 10.447 5.75743 11C5.75743 11.2758 5.86915 11.5261 6.05017 11.7071C6.23119 11.8881 6.4815 11.9998 6.75728 11.9998L10.0001 11.9998V15.2426C10.0001 15.5184 10.1118 15.7687 10.2928 15.9497C10.4738 16.1307 10.7241 16.2425 10.9999 16.2425C11.5529 16.2425 11.9998 15.7956 11.9998 15.2426V11.9998L15.2426 11.9998C15.7955 11.9998 16.2424 11.5529 16.2424 11Z"/>
    </symbol>

    <symbol id="examination" viewBox="0 0 24 24" fill="none">
        <path d="M9 16C8.11117 16.0429 7.22273 15.9078 6.38684 15.6026C5.55094 15.2975 4.78445 14.8283 4.13237 14.2228C3.48028 13.6173 2.95575 12.8876 2.58957 12.0766C2.22339 11.2656 2.02294 10.3896 2 9.5V2.5C2 2.23478 2.10536 1.98043 2.29289 1.79289C2.48043 1.60536 2.73478 1.5 3 1.5H5V1C5 0.734784 5.10536 0.48043 5.29289 0.292893C5.48043 0.105357 5.73478 0 6 0C6.26522 0 6.51957 0.105357 6.70711 0.292893C6.89464 0.48043 7 0.734784 7 1V4C7 4.26522 6.89464 4.51957 6.70711 4.70711C6.51957 4.89464 6.26522 5 6 5C5.73478 5 5.48043 4.89464 5.29289 4.70711C5.10536 4.51957 5 4.26522 5 4V3.5H4V9.5C4.01988 10.1281 4.16658 10.7456 4.43128 11.3156C4.69598 11.8855 5.07321 12.396 5.54029 12.8163C6.00737 13.2367 6.55464 13.5583 7.1492 13.7617C7.74375 13.9651 8.37331 14.0462 9 14C9.62669 14.0462 10.2562 13.9651 10.8508 13.7617C11.4454 13.5583 11.9926 13.2367 12.4597 12.8163C12.9268 12.396 13.304 11.8855 13.5687 11.3156C13.8334 10.7456 13.9801 10.1281 14 9.5V3.5H13V4C13 4.26522 12.8946 4.51957 12.7071 4.70711C12.5196 4.89464 12.2652 5 12 5C11.7348 5 11.4804 4.89464 11.2929 4.70711C11.1054 4.51957 11 4.26522 11 4V1C11 0.734784 11.1054 0.48043 11.2929 0.292893C11.4804 0.105357 11.7348 0 12 0C12.2652 0 12.5196 0.105357 12.7071 0.292893C12.8946 0.48043 13 0.734784 13 1V1.5H15C15.2652 1.5 15.5196 1.60536 15.7071 1.79289C15.8946 1.98043 16 2.23478 16 2.5V9.5C15.9771 10.3896 15.7766 11.2656 15.4104 12.0766C15.0443 12.8876 14.5197 13.6173 13.8676 14.2228C13.2155 14.8283 12.4491 15.2975 11.6132 15.6026C10.7773 15.9078 9.88883 16.0429 9 16Z" fill="#85BC20"/>
        <path d="M21 11.5C20.4067 11.5 19.8266 11.3241 19.3333 10.9944C18.8399 10.6648 18.4554 10.1962 18.2284 9.64805C18.0013 9.09987 17.9419 8.49667 18.0576 7.91473C18.1734 7.33279 18.4591 6.79824 18.8787 6.37868C19.2982 5.95912 19.8328 5.6734 20.4147 5.55765C20.9967 5.44189 21.5999 5.5013 22.1481 5.72836C22.6962 5.95543 23.1648 6.33994 23.4944 6.83329C23.8241 7.32664 24 7.90666 24 8.5C24 9.29565 23.6839 10.0587 23.1213 10.6213C22.5587 11.1839 21.7957 11.5 21 11.5ZM21 7.5C20.8022 7.5 20.6089 7.55865 20.4444 7.66853C20.28 7.77841 20.1518 7.93459 20.0761 8.11732C20.0004 8.30004 19.9806 8.50111 20.0192 8.69509C20.0578 8.88907 20.153 9.06726 20.2929 9.20711C20.4327 9.34696 20.6109 9.4422 20.8049 9.48079C20.9989 9.51937 21.2 9.49957 21.3827 9.42388C21.5654 9.34819 21.7216 9.22002 21.8315 9.05557C21.9414 8.89112 22 8.69778 22 8.5C22 8.23478 21.8946 7.98043 21.7071 7.79289C21.5196 7.60536 21.2652 7.5 21 7.5Z" fill="#85BC20"/>
        <path d="M15 22C13.1435 22 11.363 21.2625 10.0503 19.9497C8.7375 18.637 8 16.8565 8 15C8 14.7348 8.10536 14.4804 8.29289 14.2929C8.48043 14.1054 8.73478 14 9 14C9.26522 14 9.51957 14.1054 9.70711 14.2929C9.89464 14.4804 10 14.7348 10 15C10 16.3261 10.5268 17.5979 11.4645 18.5355C12.4021 19.4732 13.6739 20 15 20C16.3261 20 17.5979 19.4732 18.5355 18.5355C19.4732 17.5979 20 16.3261 20 15V10.5C20 10.2348 20.1054 9.98043 20.2929 9.79289C20.4804 9.60536 20.7348 9.5 21 9.5C21.2652 9.5 21.5196 9.60536 21.7071 9.79289C21.8946 9.98043 22 10.2348 22 10.5V15C22 16.8565 21.2625 18.637 19.9497 19.9497C18.637 21.2625 16.8565 22 15 22V22Z" fill="#85BC20"/>
    </symbol>

    <symbol id="template" viewBox="0 0 24 24" fill="none">
        <path d="M5 22H19C19.5523 22 20 21.5523 20 21V7H15V2H5C4.44771 2 4 2.44771 4 3V21C4 21.5523 4.44771 22 5 22Z" stroke="#85BC20" stroke-width="2" stroke-linecap="round" stroke-linejoin="round"/>
        <path d="M15 2L20 7" stroke="#85BC20" stroke-width="2" stroke-linecap="round" stroke-linejoin="round"/>
        <path d="M12 9.5L13.2617 12.2634L16.2797 12.6094L14.0414 14.6633L14.645 17.6406L12 16.1465L9.35495 17.6406L9.95855 14.6633L7.72025 12.6094L10.7383 12.2634L12 9.5Z" stroke="#85BC20" stroke-width="2" stroke-linecap="round" stroke-linejoin="round"/>
    </symbol>

    <symbol id="export" viewBox="0 0 24 24" fill="none">
        <path d="M19.57 22.86H5.57001C5.03957 22.86 4.53087 22.6493 4.15579 22.2742C3.78072 21.8991 3.57001 21.3904 3.57001 20.86V2.85999C3.57001 2.32955 3.78072 1.82084 4.15579 1.44577C4.53087 1.0707 5.03957 0.859985 5.57001 0.859985H15.57C15.8323 0.86109 16.0837 0.965241 16.27 1.14999L21.27 6.14999C21.3645 6.2426 21.4397 6.35304 21.4912 6.47492C21.5427 6.5968 21.5695 6.72768 21.57 6.85999V20.86C21.57 21.3904 21.3593 21.8991 20.9842 22.2742C20.6091 22.6493 20.1004 22.86 19.57 22.86ZM5.57001 2.85999V20.86H19.57V7.26999L15.15 2.85999H5.57001Z" fill="#85BC20"/>
        <path d="M15.07 17.86H10.07C9.80479 17.86 9.55044 17.7546 9.3629 17.5671C9.17536 17.3796 9.07001 17.1252 9.07001 16.86V8.85998C9.07001 8.59477 9.17536 8.34041 9.3629 8.15288C9.55044 7.96534 9.80479 7.85999 10.07 7.85999H15.07C15.3352 7.85999 15.5896 7.96534 15.7771 8.15288C15.9647 8.34041 16.07 8.59477 16.07 8.85998C16.07 9.1252 15.9647 9.37956 15.7771 9.56709C15.5896 9.75463 15.3352 9.85998 15.07 9.85998H11.07V15.86H15.07C15.3352 15.86 15.5896 15.9653 15.7771 16.1529C15.9647 16.3404 16.07 16.5948 16.07 16.86C16.07 17.1252 15.9647 17.3796 15.7771 17.5671C15.5896 17.7546 15.3352 17.86 15.07 17.86Z" fill="#85BC20"/>
        <path d="M15.07 13.86H10.07C9.80479 13.86 9.55044 13.7546 9.3629 13.5671C9.17536 13.3796 9.07001 13.1252 9.07001 12.86C9.07001 12.5948 9.17536 12.3404 9.3629 12.1529C9.55044 11.9653 9.80479 11.86 10.07 11.86H15.07C15.3352 11.86 15.5896 11.9653 15.7771 12.1529C15.9647 12.3404 16.07 12.5948 16.07 12.86C16.07 13.1252 15.9647 13.3796 15.7771 13.5671C15.5896 13.7546 15.3352 13.86 15.07 13.86Z" fill="#85BC20"/>
    </symbol>

    <symbol id="export-not-fill" viewBox="0 0 24 24">
        <path d="M19.57 22.86H5.57001C5.03957 22.86 4.53087 22.6493 4.15579 22.2742C3.78072 21.8991 3.57001 21.3904 3.57001 20.86V2.85999C3.57001 2.32955 3.78072 1.82084 4.15579 1.44577C4.53087 1.0707 5.03957 0.859985 5.57001 0.859985H15.57C15.8323 0.86109 16.0837 0.965241 16.27 1.14999L21.27 6.14999C21.3645 6.2426 21.4397 6.35304 21.4912 6.47492C21.5427 6.5968 21.5695 6.72768 21.57 6.85999V20.86C21.57 21.3904 21.3593 21.8991 20.9842 22.2742C20.6091 22.6493 20.1004 22.86 19.57 22.86ZM5.57001 2.85999V20.86H19.57V7.26999L15.15 2.85999H5.57001Z"/>
        <path d="M15.07 17.86H10.07C9.80479 17.86 9.55044 17.7546 9.3629 17.5671C9.17536 17.3796 9.07001 17.1252 9.07001 16.86V8.85998C9.07001 8.59477 9.17536 8.34041 9.3629 8.15288C9.55044 7.96534 9.80479 7.85999 10.07 7.85999H15.07C15.3352 7.85999 15.5896 7.96534 15.7771 8.15288C15.9647 8.34041 16.07 8.59477 16.07 8.85998C16.07 9.1252 15.9647 9.37956 15.7771 9.56709C15.5896 9.75463 15.3352 9.85998 15.07 9.85998H11.07V15.86H15.07C15.3352 15.86 15.5896 15.9653 15.7771 16.1529C15.9647 16.3404 16.07 16.5948 16.07 16.86C16.07 17.1252 15.9647 17.3796 15.7771 17.5671C15.5896 17.7546 15.3352 17.86 15.07 17.86Z"/>
        <path d="M15.07 13.86H10.07C9.80479 13.86 9.55044 13.7546 9.3629 13.5671C9.17536 13.3796 9.07001 13.1252 9.07001 12.86C9.07001 12.5948 9.17536 12.3404 9.3629 12.1529C9.55044 11.9653 9.80479 11.86 10.07 11.86H15.07C15.3352 11.86 15.5896 11.9653 15.7771 12.1529C15.9647 12.3404 16.07 12.5948 16.07 12.86C16.07 13.1252 15.9647 13.3796 15.7771 13.5671C15.5896 13.7546 15.3352 13.86 15.07 13.86Z"/>
    </symbol>


    <symbol id="search" viewBox="0 0 24 24">
        <path d="M11.07 20.57C9.19109 20.57 7.35436 20.0128 5.79209 18.969C4.22983 17.9251 3.01219 16.4414 2.29316 14.7055C1.57412 12.9696 1.38599 11.0595 1.75255 9.21665C2.11911 7.37383 3.0239 5.6811 4.3525 4.3525C5.6811 3.0239 7.37383 2.11911 9.21665 1.75255C11.0595 1.38599 12.9696 1.57412 14.7055 2.29316C16.4414 3.01219 17.9251 4.22983 18.969 5.79209C20.0128 7.35436 20.57 9.19109 20.57 11.07C20.5674 13.5888 19.5656 16.0036 17.7846 17.7846C16.0036 19.5656 13.5888 20.5674 11.07 20.57ZM11.07 3.57001C9.58665 3.57001 8.1366 4.00988 6.90323 4.83399C5.66987 5.6581 4.70857 6.82944 4.14092 8.19989C3.57326 9.57033 3.42473 11.0783 3.71412 12.5332C4.00351 13.988 4.71782 15.3244 5.76671 16.3733C6.8156 17.4222 8.15198 18.1365 9.60683 18.4259C11.0617 18.7153 12.5697 18.5668 13.9401 17.9991C15.3106 17.4314 16.4819 16.4702 17.306 15.2368C18.1301 14.0034 18.57 12.5534 18.57 11.07C18.5647 9.08251 17.7729 7.17792 16.3675 5.77254C14.9621 4.36716 13.0575 3.57529 11.07 3.57001Z"/>
        <path d="M13.9 8.74C13.7684 8.74076 13.6379 8.71554 13.5161 8.66578C13.3943 8.61601 13.2834 8.54269 13.19 8.45C12.6204 7.92145 11.8721 7.62774 11.095 7.62774C10.3179 7.62774 9.5696 7.92145 9 8.45C8.80771 8.64361 8.5464 8.75291 8.27353 8.75384C8.00067 8.75478 7.7386 8.64729 7.545 8.455C7.35139 8.26272 7.24209 8.00141 7.24116 7.72854C7.24022 7.45567 7.34771 7.19361 7.54 7C8.47763 6.06265 9.74918 5.53607 11.075 5.53607C12.4008 5.53607 13.6724 6.06265 14.61 7C14.7962 7.18737 14.9008 7.44082 14.9008 7.705C14.9008 7.96919 14.7962 8.22264 14.61 8.41C14.5199 8.50994 14.4106 8.59068 14.2886 8.64738C14.1666 8.70408 14.0345 8.73558 13.9 8.74Z"/>
        <path d="M21.43 22.43C21.2977 22.4294 21.1668 22.4026 21.045 22.3511C20.9231 22.2996 20.8126 22.2245 20.72 22.13L16.48 17.89C16.3162 17.6987 16.2306 17.4526 16.2403 17.2009C16.25 16.9493 16.3544 16.7105 16.5325 16.5324C16.7106 16.3543 16.9493 16.25 17.201 16.2403C17.4526 16.2306 17.6987 16.3162 17.89 16.48L22.13 20.72C22.3163 20.9074 22.4208 21.1608 22.4208 21.425C22.4208 21.6892 22.3163 21.9426 22.13 22.13C21.9454 22.3184 21.6938 22.4262 21.43 22.43Z"/>
    </symbol>

    <symbol id="calendar" viewBox="0 0 24 24" fill="none">
        <path d="M21 2H3C2.44772 2 2 2.44772 2 3V21C2 21.5523 2.44772 22 3 22H21C21.5523 22 22 21.5523 22 21V3C22 2.44772 21.5523 2 21 2Z" stroke-width="2" stroke-linecap="round" stroke-linejoin="round"/>
        <path d="M2 7H22" stroke-width="2" stroke-linecap="round" stroke-linejoin="round"/>
        <path d="M22 5.5V11.5" stroke-width="2" stroke-linecap="round" stroke-linejoin="round"/>
        <path d="M6 11H8" stroke-width="2" stroke-linecap="round" stroke-linejoin="round"/>
        <path d="M11 11H13" stroke-width="2" stroke-linecap="round" stroke-linejoin="round"/>
        <path d="M16 11H18" stroke-width="2" stroke-linecap="round" stroke-linejoin="round"/>
        <path d="M6 14.5H8" stroke-width="2" stroke-linecap="round" stroke-linejoin="round"/>
        <path d="M11 14.5H13" stroke-width="2" stroke-linecap="round" stroke-linejoin="round"/>
        <path d="M16 14.5H18" stroke-width="2" stroke-linecap="round" stroke-linejoin="round"/>
        <path d="M6 18H8" stroke-width="2" stroke-linecap="round" stroke-linejoin="round"/>
        <path d="M11 18H13" stroke-width="2" stroke-linecap="round" stroke-linejoin="round"/>
        <path d="M16 18H18" stroke-width="2" stroke-linecap="round" stroke-linejoin="round"/>
        <path d="M2 5.5V11.5" stroke-width="2" stroke-linecap="round" stroke-linejoin="round"/>
    </symbol>

    <symbol id="exam-warning" viewBox="0 0 24 24" fill="none">
        <path fill-rule="evenodd" clip-rule="evenodd" d="M12 18.5C12.2472 18.5 12.4889 18.4267 12.6945 18.2893C12.9 18.152 13.0602 17.9568 13.1548 17.7284C13.2495 17.4999 13.2742 17.2486 13.226 17.0061C13.1778 16.7637 13.0587 16.5409 12.8839 16.3661C12.7091 16.1913 12.4863 16.0723 12.2439 16.024C12.0014 15.9758 11.7501 16.0005 11.5216 16.0952C11.2932 16.1898 11.098 16.35 10.9607 16.5555C10.8233 16.7611 10.75 17.0028 10.75 17.25C10.75 17.5815 10.8817 17.8995 11.1161 18.1339C11.3505 18.3683 11.6685 18.5 12 18.5Z" fill="#EA8F00"/>
        <path d="M12 6V14" stroke="#EA8F00" stroke-width="2" stroke-linecap="round" stroke-linejoin="round"/>
    </symbol>

    <symbol id="exam-warning-small" viewBox="0 0 24 24" fill="none">
        <path d="M12 22C14.3136 22.0005 16.5558 21.1988 18.3445 19.7314C20.1332 18.2641 21.3578 16.2219 21.8096 13.9528C22.2614 11.6838 21.9125 9.32831 20.8222 7.28771C19.732 5.24711 17.968 3.64766 15.8307 2.76191C13.6933 1.87615 11.315 1.75888 9.10096 2.43009C6.88688 3.1013 4.97404 4.51946 3.68837 6.44291C2.40269 8.36637 1.82373 10.6761 2.05013 12.9786C2.27654 15.2811 3.2943 17.4338 4.93 19.07C6.80493 20.9455 9.34805 21.9994 12 22Z" stroke="#EA8F00" stroke-width="2" stroke-linejoin="round"/>
        <path fill-rule="evenodd" clip-rule="evenodd" d="M12 18.5C12.2472 18.5 12.4889 18.4267 12.6945 18.2893C12.9 18.152 13.0602 17.9568 13.1548 17.7284C13.2495 17.4999 13.2742 17.2486 13.226 17.0061C13.1778 16.7637 13.0587 16.5409 12.8839 16.3661C12.7091 16.1913 12.4863 16.0723 12.2439 16.024C12.0014 15.9758 11.7501 16.0005 11.5216 16.0952C11.2932 16.1898 11.098 16.35 10.9607 16.5555C10.8233 16.7611 10.75 17.0028 10.75 17.25C10.75 17.5815 10.8817 17.8995 11.1161 18.1339C11.3505 18.3683 11.6685 18.5 12 18.5Z" fill="#EA8F00"/>
        <path d="M12 6V14" stroke="#EA8F00" stroke-width="2" stroke-linecap="round" stroke-linejoin="round"/>
    </symbol>

    <symbol id="exam-time" viewBox="0 0 24 24" fill="none">
        <path d="M12.57 22.86C10.3944 22.86 8.26768 22.2149 6.45874 21.0062C4.6498 19.7975 3.2399 18.0795 2.40734 16.0695C1.57477 14.0595 1.35694 11.8478 1.78137 9.71401C2.20581 7.58022 3.25346 5.6202 4.79184 4.08183C6.33022 2.54345 8.29023 1.4958 10.424 1.07136C12.5578 0.646924 14.7695 0.864761 16.7795 1.69732C18.7895 2.52989 20.5075 3.93979 21.7162 5.74873C22.9249 7.55767 23.57 9.68441 23.57 11.86C23.57 14.7774 22.4111 17.5753 20.3482 19.6382C18.2853 21.7011 15.4874 22.86 12.57 22.86ZM12.57 2.86C10.79 2.86 9.04992 3.38784 7.56988 4.37677C6.08984 5.36571 4.93629 6.77131 4.2551 8.41585C3.57391 10.0604 3.39568 11.87 3.74294 13.6158C4.09021 15.3616 4.94738 16.9653 6.20605 18.224C7.46472 19.4826 9.06837 20.3398 10.8142 20.6871C12.56 21.0343 14.3696 20.8561 16.0142 20.1749C17.6587 19.4937 19.0643 18.3402 20.0532 16.8601C21.0422 15.3801 21.57 13.64 21.57 11.86C21.57 9.47305 20.6218 7.18387 18.934 5.49604C17.2461 3.80821 14.957 2.86 12.57 2.86Z" fill="#BDBDBD"/>
        <path d="M16.81 17.1C16.6784 17.1008 16.5479 17.0755 16.4261 17.0258C16.3043 16.976 16.1934 16.9027 16.1 16.81L11.86 12.57C11.7673 12.4766 11.694 12.3657 11.6442 12.2439C11.5945 12.1221 11.5692 11.9916 11.57 11.86V5.86C11.57 5.59478 11.6754 5.34043 11.8629 5.15289C12.0504 4.96536 12.3048 4.86 12.57 4.86C12.8352 4.86 13.0896 4.96536 13.2771 5.15289C13.4646 5.34043 13.57 5.59478 13.57 5.86V11.45L17.52 15.39C17.6137 15.483 17.6881 15.5936 17.7389 15.7154C17.7897 15.8373 17.8158 15.968 17.8158 16.1C17.8158 16.232 17.7897 16.3627 17.7389 16.4846C17.6881 16.6064 17.6137 16.717 17.52 16.81C17.4266 16.9027 17.3157 16.976 17.1939 17.0258C17.0721 17.0755 16.9416 17.1008 16.81 17.1Z" fill="#BDBDBD"/>
    </symbol>

    <symbol id="exam-question" viewBox="0 0 24 24" fill="none">
        <path d="M10.87 14.68C10.87 14.23 10.87 13.85 10.87 13.54C10.8837 13.2539 10.9376 12.9711 11.03 12.7C11.1124 12.4452 11.2412 12.2079 11.41 12C11.6196 11.7467 11.8579 11.5185 12.12 11.32C12.34 11.12 12.56 10.91 12.79 10.68C13.0061 10.4645 13.2066 10.2339 13.39 9.99C13.561 9.76408 13.7053 9.51912 13.82 9.26C13.9327 9.02921 13.9941 8.77676 14 8.52C14.0204 8.28135 13.988 8.04114 13.905 7.81645C13.8221 7.59176 13.6906 7.38811 13.52 7.22C13.1161 6.92281 12.6204 6.77762 12.12 6.81C11.8895 6.80815 11.6602 6.84188 11.44 6.91C11.2264 6.9676 11.0261 7.06608 10.85 7.2C10.6704 7.34136 10.5266 7.5229 10.43 7.73C10.313 7.96954 10.2548 8.23348 10.26 8.5H7.55999C7.55266 7.90295 7.67908 7.31182 7.92999 6.77C8.16751 6.29061 8.50917 5.87036 8.92999 5.54C9.35961 5.21024 9.84842 4.96583 10.37 4.82C10.9559 4.65656 11.5617 4.57578 12.17 4.58C12.8246 4.57144 13.4772 4.65218 14.11 4.82C14.6394 4.95837 15.1335 5.20714 15.56 5.55C15.9549 5.86744 16.2671 6.27572 16.47 6.74C16.6866 7.26256 16.7922 7.82446 16.78 8.39C16.7846 8.82409 16.7066 9.2551 16.55 9.66C16.3943 10.0387 16.1892 10.3951 15.94 10.72C15.6845 11.0544 15.4037 11.3687 15.1 11.66C14.78 11.96 14.4467 12.25 14.1 12.53C13.9375 12.6886 13.7871 12.8591 13.65 13.04C13.5392 13.1752 13.4575 13.3318 13.41 13.5C13.3604 13.6664 13.3269 13.8372 13.31 14.01C13.31 14.2 13.31 14.42 13.31 14.68H10.87ZM10.47 17.68C10.4708 17.4751 10.5081 17.2719 10.58 17.08C10.6484 16.9 10.7541 16.7364 10.89 16.6C11.0324 16.4595 11.2028 16.3505 11.39 16.28C11.602 16.2054 11.8253 16.1682 12.05 16.17C12.2746 16.1693 12.4977 16.2065 12.71 16.28C12.9001 16.3506 13.0737 16.4595 13.22 16.6C13.4954 16.8923 13.6491 17.2784 13.65 17.68C13.6517 17.8829 13.6108 18.0839 13.53 18.27C13.4601 18.4463 13.3545 18.6063 13.22 18.74C13.0726 18.8742 12.8989 18.9764 12.71 19.04C12.4997 19.1219 12.2757 19.1627 12.05 19.16C11.8243 19.1634 11.6001 19.1227 11.39 19.04C11.204 18.9765 11.0336 18.8742 10.89 18.74C10.7523 18.6089 10.6462 18.4482 10.58 18.27C10.5021 18.0693 10.4647 17.8552 10.47 17.64V17.68Z" fill="#BDBDBD"/>
    </symbol>

    <symbol id="exam-close" viewBox="0 0 24 24" fill="none">
        <path d="M6.29299 17.7067C6.68399 18.0977 7.31599 18.0977 7.70699 17.7067L12 13.4137L16.293 17.7067C16.684 18.0977 17.316 18.0977 17.707 17.7067C18.098 17.3157 18.098 16.6838 17.707 16.2928L13.414 11.9997L17.707 7.70675C18.098 7.31575 18.098 6.68375 17.707 6.29275C17.512 6.09775 17.256 5.99975 17 5.99975C16.744 5.99975 16.488 6.09775 16.293 6.29275L12 10.5858L7.707 6.29275C7.512 6.09775 7.25599 5.99975 7 5.99975C6.744 5.99975 6.488 6.09775 6.293 6.29275C5.902 6.68375 5.902 7.31575 6.293 7.70675L10.586 11.9997L6.29299 16.2927C5.90199 16.6837 5.90199 17.3157 6.29299 17.7067Z" fill="#BDBDBD"/>
    </symbol>

    <symbol id="edit" viewBox="0 0 24 24">
        <path d="M21.5 22H3.5C3.23478 22 2.98043 21.8946 2.79289 21.7071C2.60536 21.5196 2.5 21.2652 2.5 21C2.5 20.7348 2.60536 20.4804 2.79289 20.2929C2.98043 20.1054 3.23478 20 3.5 20H21.5C21.7652 20 22.0196 20.1054 22.2071 20.2929C22.3946 20.4804 22.5 20.7348 22.5 21C22.5 21.2652 22.3946 21.5196 22.2071 21.7071C22.0196 21.8946 21.7652 22 21.5 22Z"/>
        <path d="M9.15999 18H5.49999C5.23477 18 4.98042 17.8946 4.79288 17.7071C4.60534 17.5196 4.49999 17.2652 4.49999 17V13.36C4.49923 13.2284 4.52445 13.0979 4.57421 12.9761C4.62398 12.8543 4.6973 12.7434 4.78999 12.65L15.14 2.29C15.3273 2.10375 15.5808 1.99921 15.845 1.99921C16.1092 1.99921 16.3626 2.10375 16.55 2.29L20.21 6C20.3962 6.18736 20.5008 6.44081 20.5008 6.705C20.5008 6.96918 20.3962 7.22264 20.21 7.41L9.86999 17.71C9.67835 17.8927 9.42475 17.9963 9.15999 18ZM6.49999 16H8.73999L18.09 6.65L15.85 4.41L6.49999 13.77V16Z"/>
    </symbol>

    <symbol id="exam-card" viewBox="0 0 24 24" fill="none">
        <path d="M19 2H5C4.73478 2 4.48043 2.10536 4.29289 2.29289C4.10536 2.48043 4 2.73478 4 3V21C4 21.2652 4.10536 21.5196 4.29289 21.7071C4.48043 21.8946 4.73478 22 5 22H19C19.2652 22 19.5196 21.8946 19.7071 21.7071C19.8946 21.5196 20 21.2652 20 21V3C20 2.73478 19.8946 2.48043 19.7071 2.29289C19.5196 2.10536 19.2652 2 19 2V2Z" stroke="#85BC20" stroke-width="2" stroke-linecap="round" stroke-linejoin="round"/>
        <path d="M8 15H15" stroke="#85BC20" stroke-width="2" stroke-linecap="round" stroke-linejoin="round"/>
        <path d="M8 18H11.5" stroke="#85BC20" stroke-width="2" stroke-linecap="round" stroke-linejoin="round"/>
        <path d="M15 6H8V11H15V6Z" stroke="#85BC20" stroke-width="2" stroke-linecap="round" stroke-linejoin="round"/>
    </symbol>

    <symbol id="chevron" viewBox="0 0 24 24">
        <path d="M19 14.5C19.0008 14.6316 18.9755 14.7621 18.9258 14.8839C18.876 15.0057 18.8027 15.1166 18.71 15.21C18.617 15.3037 18.5064 15.3781 18.3846 15.4289C18.2627 15.4797 18.132 15.5058 18 15.5058C17.868 15.5058 17.7373 15.4797 17.6154 15.4289C17.4936 15.3781 17.383 15.3037 17.29 15.21L12 9.91L6.71 15.21C6.5217 15.3983 6.2663 15.5041 6 15.5041C5.86814 15.5041 5.73758 15.4781 5.61575 15.4277C5.49393 15.3772 5.38324 15.3032 5.29 15.21C5.19676 15.1168 5.1228 15.0061 5.07234 14.8842C5.02188 14.7624 4.99591 14.6319 4.99591 14.5C4.99591 14.2337 5.1017 13.9783 5.29 13.79L11.29 7.79C11.383 7.69627 11.4936 7.62188 11.6154 7.57111C11.7373 7.52034 11.868 7.4942 12 7.4942C12.132 7.4942 12.2627 7.52034 12.3846 7.57111C12.5064 7.62188 12.617 7.69627 12.71 7.79L18.71 13.79C18.8027 13.8834 18.876 13.9943 18.9258 14.1161C18.9755 14.2379 19.0008 14.3684 19 14.5Z"/>
    </symbol>
    
    <symbol id="arr-r" viewBox="0 0 24 24">
        <path d="M12.7101 17.7099L18.7101 11.7099C18.8038 11.617 18.8782 11.5064 18.929 11.3845C18.9797 11.2627 19.0059 11.132 19.0059 10.9999C19.0059 10.8679 18.9797 10.7372 18.929 10.6154C18.8782 10.4935 18.8038 10.3829 18.7101 10.2899L12.7101 4.28994C12.5218 4.10164 12.2664 3.99585 12.0001 3.99585C11.7338 3.99585 11.4784 4.10164 11.2901 4.28994C11.1018 4.47825 10.996 4.73364 10.996 4.99994C10.996 5.26624 11.1018 5.52164 11.2901 5.70994L15.5901 9.99994L5.00006 9.99994C4.73484 9.99994 4.48049 10.1053 4.29295 10.2928C4.10542 10.4804 4.00006 10.7347 4.00006 10.9999C4.00006 11.2652 4.10542 11.5195 4.29295 11.707C4.48049 11.8946 4.73484 11.9999 5.00006 11.9999L15.5901 11.9999L11.2901 16.2899C11.1963 16.3829 11.1219 16.4935 11.0712 16.6154C11.0204 16.7372 10.9943 16.8679 10.9943 16.9999C10.9943 17.132 11.0204 17.2627 11.0712 17.3845C11.1219 17.5064 11.1963 17.617 11.2901 17.7099C11.383 17.8037 11.4936 17.8781 11.6155 17.9288C11.7373 17.9796 11.868 18.0057 12.0001 18.0057C12.1321 18.0057 12.2628 17.9796 12.3846 17.9288C12.5065 17.8781 12.6171 17.8037 12.7101 17.7099Z"/>
    </symbol>

    <symbol id="plus-no-border" viewBox="0 0 24 24">
        
        <path d="M17.2424 12C17.2424 11.447 16.7955 11.0001 16.2426 11.0001L12.9998 11.0001L12.9998 7.75733C12.9998 7.20437 12.5529 6.75748 11.9999 6.75748C11.447 6.75748 11.0001 7.20437 11.0001 7.75733L11.0001 11.0001L7.7573 11.0001C7.20434 11.0001 6.75745 11.447 6.75745 12C6.75745 12.2757 6.86917 12.5261 7.05019 12.7071C7.23121 12.8881 7.48153 12.9998 7.7573 12.9998L11.0001 12.9998V16.2426C11.0001 16.5184 11.1118 16.7687 11.2928 16.9497C11.4739 17.1307 11.7242 17.2425 11.9999 17.2425C12.5529 17.2425 12.9998 16.7956 12.9998 16.2426V12.9998L16.2426 12.9998C16.7955 12.9998 17.2424 12.5529 17.2424 12Z"/>
    </symbol>

    <symbol id="share" viewBox="0 0 24 24" fill="none">
        <path d="M17.5 8C18.8807 8 20 6.8807 20 5.5C20 4.11929 18.8807 3 17.5 3C16.1193 3 15 4.11929 15 5.5C15 6.8807 16.1193 8 17.5 8Z" stroke-width="2" stroke-linejoin="round"/>
        <path d="M6.5 14.5C7.8807 14.5 9 13.3807 9 12C9 10.6193 7.8807 9.5 6.5 9.5C5.1193 9.5 4 10.6193 4 12C4 13.3807 5.1193 14.5 6.5 14.5Z" stroke-width="2" stroke-linejoin="round"/>
        <path d="M15.0002 6.78725L8.66965 10.6227" stroke-width="2" stroke-linecap="round" stroke-linejoin="round"/>
        <path d="M8.66925 13.282L15.3395 17.2235" stroke-width="2" stroke-linecap="round" stroke-linejoin="round"/>
        <path d="M17.5 16C18.8807 16 20 17.1193 20 18.5C20 19.8807 18.8807 21 17.5 21C16.1193 21 15 19.8807 15 18.5C15 17.1193 16.1193 16 17.5 16Z" stroke-width="2" stroke-linejoin="round"/>
    </symbol>

    <symbol id="handbook-camera" viewBox="0 0 24 24">
        <path d="M16.5 10.5H3C2.44772 10.5 2 10.9477 2 11.5V19.5C2 20.0523 2.44772 20.5 3 20.5H16.5C17.0523 20.5 17.5 20.0523 17.5 19.5V11.5C17.5 10.9477 17.0523 10.5 16.5 10.5Z" stroke-width="2"/>
        <path d="M14.5 13.5H10V17.5H14.5V13.5Z" stroke-width="2" stroke-linecap="round" stroke-linejoin="round"/>
        <path d="M13.5 9C14.8807 9 16 7.88071 16 6.5C16 5.11929 14.8807 4 13.5 4C12.1193 4 11 5.11929 11 6.5C11 7.88071 12.1193 9 13.5 9Z" stroke-width="2" stroke-linecap="round" stroke-linejoin="round"/>
        <path d="M6.5 9C7.88071 9 9 7.88071 9 6.5C9 5.11929 7.88071 4 6.5 4C5.11929 4 4 5.11929 4 6.5C4 7.88071 5.11929 9 6.5 9Z" stroke-width="2" stroke-linecap="round" stroke-linejoin="round"/>
        <path d="M17.5 17.5L22 19.5V11.5L17.5 13.5" stroke-width="2" stroke-linecap="round" stroke-linejoin="round"/>
    </symbol>

    <symbol id="handbook-state" viewBox="0 0 24 24">
        <path d="M5 22H19C19.5523 22 20 21.5523 20 21V7H15V2H5C4.44771 2 4 2.44771 4 3V21C4 21.5523 4.44771 22 5 22Z" stroke-width="2" stroke-linecap="round" stroke-linejoin="round"/>
        <path d="M15 2L20 7" stroke-width="2" stroke-linecap="round" stroke-linejoin="round"/>
        <path d="M12 11V18" stroke-width="2" stroke-linecap="round" stroke-linejoin="round"/>
        <path d="M9 11H12H15" stroke-width="2" stroke-linecap="round" stroke-linejoin="round"/>
    </symbol>

    <symbol id="handbook-doc" viewBox="0 0 24 24" >
        <path d="M19.5 2H5.5C4.94771 2 4.5 2.44771 4.5 3V21C4.5 21.5523 4.94771 22 5.5 22H19.5C20.0523 22 20.5 21.5523 20.5 21V3C20.5 2.44771 20.0523 2 19.5 2Z" stroke-width="2" stroke-linecap="round" stroke-linejoin="round"/>
        <path d="M8.5 15H15.5" stroke-width="2" stroke-linecap="round" stroke-linejoin="round"/>
        <path d="M8.5 18H12" stroke-width="2" stroke-linecap="round" stroke-linejoin="round"/>
        <path d="M15.5 6H8.5V11H15.5V6Z" stroke-width="2" stroke-linecap="round" stroke-linejoin="round"/>
    </symbol>

    <symbol id="card-clear" viewBox="0 0 24 24" fill="none">
        <path d="M2 21H22" stroke-width="2" stroke-linecap="round" stroke-linejoin="round"/>
        <path d="M15.5 2L3.5 14L6.5 17H10.5L20.5 7L15.5 2Z" stroke-width="2" stroke-linecap="round" stroke-linejoin="round"/>
    </symbol>

    <symbol id="card-copy" viewBox="0 0 24 24" fill="none">
        <path d="M17 12.0042H3" stroke-width="2" stroke-linecap="round" stroke-linejoin="round"/>
        <path d="M11 6L17 12L11 18" stroke-width="2" stroke-linecap="round" stroke-linejoin="round"/>
        <path d="M21 6V18" stroke-width="2" stroke-linecap="round" stroke-linejoin="round"/>
    </symbol>

    <symbol id="card-save" viewBox="0 0 24 24" fill="none">
        <path d="M5 22H19C19.5523 22 20 21.5523 20 21V7H15V2H5C4.44771 2 4 2.44771 4 3V21C4 21.5523 4.44771 22 5 22Z" stroke-width="2" stroke-linecap="round" stroke-linejoin="round"/>
        <path d="M15 2L20 7" stroke-width="2" stroke-linecap="round" stroke-linejoin="round"/>
        <path d="M10.5 12.5L8 15L10.5 17.5" stroke-width="2" stroke-linecap="round" stroke-linejoin="round"/>
        <path d="M8 15H16V11" stroke-width="2" stroke-linecap="round" stroke-linejoin="round"/>
    </symbol>

    <symbol id="card-templ" viewBox="0 0 24 24" fill="none">
        <path d="M5 22H19C19.5523 22 20 21.5523 20 21V7H15V2H5C4.44771 2 4 2.44771 4 3V21C4 21.5523 4.44771 22 5 22Z" stroke-width="2" stroke-linecap="round" stroke-linejoin="round"/>
        <path d="M15 2L20 7" stroke-width="2" stroke-linecap="round" stroke-linejoin="round"/>
        <path d="M12 9.5L13.2617 12.2634L16.2797 12.6094L14.0414 14.6633L14.645 17.6406L12 16.1465L9.35495 17.6406L9.95855 14.6633L7.72025 12.6094L10.7383 12.2634L12 9.5Z" stroke-width="2" stroke-linecap="round" stroke-linejoin="round"/>
    </symbol>

    <symbol id="card-preview" viewBox="0 0 24 24" fill="none">
        <path d="M5 22H19C19.5523 22 20 21.5523 20 21V7H15V2H5C4.44771 2 4 2.44771 4 3V21C4 21.5523 4.44771 22 5 22Z" stroke-width="2" stroke-linecap="round" stroke-linejoin="round"/>
        <path d="M15 2L20 7" stroke-width="2" stroke-linecap="round" stroke-linejoin="round"/>
        <path d="M12 17C14.4853 17 16.5 14 16.5 14C16.5 14 14.4853 11 12 11C9.5147 11 7.5 14 7.5 14C7.5 14 9.5147 17 12 17Z" stroke-width="2" stroke-linejoin="round"/>
        <path d="M12 15C12.5523 15 13 14.5523 13 14C13 13.4477 12.5523 13 12 13C11.4477 13 11 13.4477 11 14C11 14.5523 11.4477 15 12 15Z"/>
    </symbol>

    <symbol id="conclusion-done" viewBox="0 0 24 24" fill="none">
        <path d="M5 22H19C19.5523 22 20 21.5523 20 21V7H15V2H5C4.44771 2 4 2.44771 4 3V21C4 21.5523 4.44771 22 5 22Z" stroke="#85BC20" stroke-width="2" stroke-linecap="round" stroke-linejoin="round"/>
        <path d="M15 2L20 7" stroke="#85BC20" stroke-width="2" stroke-linecap="round" stroke-linejoin="round"/>
        <path d="M8.5 14.5L11.5 17L16 11.5" stroke="#85BC20" stroke-width="2" stroke-linecap="round" stroke-linejoin="round"/>
    </symbol>

    <symbol id="conclusion-error" viewBox="0 0 24 24" fill="none">
        <path d="M20.925 6.628C20.905 6.58 20.871 6.541 20.845 6.497C20.812 6.441 20.788 6.38 20.743 6.331L16.243 1.331C16.054 1.12 15.783 1 15.5 1H5C3.897 1 3 1.897 3 3V21C3 22.103 3.897 23 5 23H19C20.103 23 21 22.103 21 21V7C21 6.871 20.972 6.745 20.925 6.628ZM17.755 6H16V4.05L17.755 6ZM5 21V3H14V7C14 7.552 14.447 8 15 8H19V21H5Z" fill="#EA8F00"/>
        <path d="M12 15.5C12.552 15.5 13 15.053 13 14.5V9.5C13 8.948 12.552 8.5 12 8.5C11.448 8.5 11 8.948 11 9.5V14.5C11 15.053 11.448 15.5 12 15.5Z" fill="#EA8F00"/>
        <path d="M12 19.5C12.6904 19.5 13.25 18.9404 13.25 18.25C13.25 17.5596 12.6904 17 12 17C11.3096 17 10.75 17.5596 10.75 18.25C10.75 18.9404 11.3096 19.5 12 19.5Z" fill="#EA8F00"/>
    </symbol>

</svg>